<svg width="145" height="20" viewBox="0 0 145 20" fill="none" xmlns="http://www.w3.org/2000/svg">
<g clip-path="url(#clip0_13_735)">
<path d="M16.6443 4.58937V0H17.5939V1.83575H19.4933V0H20.4929V4.58937H19.4933V2.6087H17.5939V4.63768H16.6443V4.58937Z" fill="#81489C"/>
<path d="M16.6443 9.99999V5.41061H17.5939L19.5433 8.5024V5.41061H20.4429V9.99999H19.4933L17.5939 7.00482V9.99999H16.6443Z" fill="#81489C"/>
<path d="M26.8907 11.8841V12.3188L21.8425 9.51691L22.0424 9.17874L26.8907 11.8841Z" fill="black"/>
<path d="M35.2378 7.24637V7.68115L26.8907 12.3188V11.884L35.2378 7.24637Z" fill="black"/>
<path d="M43.585 11.884V12.3188L35.2379 7.68115V7.24637L43.585 11.884Z" fill="black"/>
<path d="M50.0328 4.58937V0H50.9824V1.83575H52.8818V0H53.8315V4.58937H52.8818V2.6087H50.9824V4.63768H50.0328V4.58937Z" fill="#81489C"/>
<path d="M50.0328 9.99999V5.41061H50.9824L52.9318 8.5024V5.41061H53.8315V9.99999H52.8818L50.9824 7.00482V9.99999H50.0328Z" fill="#81489C"/>
<path d="M48.4333 9.17874L48.6332 9.51691L43.6349 12.3188V11.8841L48.4333 9.17874Z" fill="black"/>
<path d="M60.2792 11.8841V12.3188L55.231 9.51691L55.4309 9.17874L60.2792 11.8841Z" fill="black"/>
<path d="M68.6264 7.24637V7.68115L60.2792 12.3188V11.884L68.6264 7.24637Z" fill="black"/>
<path d="M76.9735 11.884V12.3188L68.6263 7.68115V7.24637L76.9735 11.884Z" fill="black"/>
<path d="M85.2706 7.24637V7.68115L76.9734 12.3188V11.884L85.2706 7.24637Z" fill="black"/>
<path d="M91.7184 14.6377V10.0483H92.6681L94.6174 13.1401V10.0483H95.5171V14.6377H94.5674L92.6681 11.6425V14.6377H91.7184Z" fill="#81489C"/>
<path d="M91.7184 20V15.4106H92.6681V17.2464H94.5674V15.4106H95.5171V20H94.5674V17.971H92.6681V20H91.7184Z" fill="#81489C"/>
<path d="M90.3689 10.0966L90.1689 10.4348L85.2706 7.68115V7.24637L90.3689 10.0966Z" fill="black"/>
<path d="M101.965 7.24637V7.68115L97.0165 10.4348L96.8166 10.0966L101.965 7.24637Z" fill="black"/>
<path d="M110.312 11.884V12.3188L101.965 7.68115V7.24637L110.312 11.884Z" fill="black"/>
<path d="M118.659 7.24637V7.68115L110.312 12.3188V11.884L118.659 7.24637Z" fill="black"/>
<path d="M125.057 14.6377V10.0483H126.007L127.956 13.1401V10.0483H128.856V14.6377H127.906L126.007 11.6425V14.6377H125.057Z" fill="#81489C"/>
<path d="M125.057 20V15.4106H126.007V17.2464H127.906V15.4106H128.856V20H127.906V17.971H126.007V20H125.057Z" fill="#81489C"/>
<path d="M123.757 10.0966L123.557 10.4348L118.659 7.68115V7.24637L123.757 10.0966Z" fill="black"/>
<path d="M136.453 8.30917L137.403 8.59902C137.253 9.08211 137.003 9.46859 136.703 9.71013C136.353 9.95168 135.953 10.0966 135.453 10.0966C134.803 10.0966 134.304 9.90337 133.904 9.46859C133.504 9.0338 133.304 8.5024 133.304 7.72945C133.304 6.95651 133.504 6.3768 133.904 5.94201C134.304 5.50723 134.853 5.314 135.503 5.314C136.103 5.314 136.553 5.45892 136.903 5.79709C137.103 5.99032 137.303 6.28018 137.403 6.66665L136.453 6.9082C136.403 6.66665 136.303 6.47342 136.103 6.32849C135.903 6.18356 135.703 6.13525 135.453 6.13525C135.103 6.13525 134.803 6.28018 134.604 6.52172C134.404 6.76327 134.254 7.14974 134.254 7.72945C134.254 8.30916 134.354 8.74395 134.604 8.98549C134.803 9.22704 135.103 9.37197 135.453 9.37197C135.703 9.37197 135.953 9.27535 136.103 9.13042C136.253 8.98549 136.403 8.64733 136.453 8.30917Z" fill="#81489C"/>
<path d="M138.202 9.99999V5.41061H139.102V7.05313C139.402 6.76327 139.702 6.57003 140.102 6.57003C140.502 6.57003 140.851 6.71496 141.151 7.00482C141.451 7.29467 141.551 7.72945 141.551 8.26086C141.551 8.84057 141.401 9.27535 141.151 9.5652C140.901 9.85506 140.552 10.0483 140.152 10.0483C139.952 10.0483 139.752 9.99999 139.552 9.90337C139.352 9.80675 139.202 9.66182 139.052 9.46859V9.95168H138.202V9.99999ZM139.102 8.26086C139.102 8.59902 139.152 8.84057 139.252 9.0338C139.402 9.27535 139.602 9.37197 139.902 9.37197C140.102 9.37197 140.252 9.27535 140.402 9.13042C140.552 8.98549 140.601 8.69564 140.601 8.35747C140.601 7.971 140.552 7.68115 140.402 7.53622C140.252 7.39129 140.052 7.29467 139.852 7.29467C139.652 7.29467 139.452 7.39129 139.302 7.53622C139.152 7.63284 139.102 7.92269 139.102 8.26086Z" fill="#81489C"/>
<path d="M141.901 9.99999V9.32366L143.201 7.87439C143.401 7.63284 143.55 7.48791 143.65 7.39129C143.55 7.39129 143.401 7.39129 143.251 7.39129H142.051V6.66666H144.9V7.24637L143.6 8.69564L143.151 9.17873C143.401 9.17873 143.55 9.17873 143.6 9.17873H145V9.95168H141.901V9.99999Z" fill="#81489C"/>
<path d="M132.304 8.88889L132.504 9.22705L130.355 10.4348L130.155 10.0966L132.304 8.88889Z" fill="black"/>
<path d="M3.1989 12.9469L4.14857 13.2367C3.99863 13.7198 3.74871 14.1063 3.44882 14.3478C3.09894 14.5894 2.69907 14.7343 2.19925 14.7343C1.54947 14.7343 1.04964 14.5411 0.649781 14.1063C0.249919 13.6715 0.0499878 13.1401 0.0499878 12.3671C0.0499878 11.5942 0.249919 11.0145 0.649781 10.5797C1.04964 10.1449 1.59945 9.95169 2.24923 9.95169C2.84902 9.95169 3.29887 10.0966 3.64875 10.4348C3.84868 10.628 4.04861 10.9179 4.14857 11.3043L3.1989 11.5459C3.14892 11.256 2.99897 11.1111 2.84902 10.9662C2.64909 10.8213 2.44916 10.7729 2.19925 10.7729C1.84937 10.7729 1.54947 10.9179 1.34954 11.1594C1.14961 11.401 0.99966 11.7391 0.99966 12.3188C0.99966 12.8986 1.09963 13.3333 1.34954 13.5749C1.54947 13.8164 1.84937 13.9614 2.19925 13.9614C2.44916 13.9614 2.69907 13.8647 2.84902 13.7198C2.99897 13.5266 3.14892 13.285 3.1989 12.9469Z" fill="#81489C"/>
<path d="M4.9483 14.6377V10.0483H5.84799V11.6908C6.14789 11.401 6.44779 11.2077 6.84765 11.2077C7.24751 11.2077 7.59739 11.3527 7.89729 11.6425C8.19718 11.9324 8.29715 12.3672 8.29715 12.8986C8.29715 13.4783 8.1472 13.913 7.89729 14.2029C7.64737 14.4928 7.29749 14.686 6.89763 14.686C6.6977 14.686 6.49777 14.6377 6.29784 14.5411C6.09791 14.4444 5.94796 14.2995 5.79801 14.1063V14.5894H4.9483V14.6377ZM5.84799 12.8986C5.84799 13.2367 5.89798 13.4783 5.99794 13.6715C6.14789 13.913 6.34782 14.0097 6.64772 14.0097C6.84765 14.0097 6.9976 13.913 7.14755 13.7681C7.29749 13.6232 7.34748 13.3333 7.34748 12.9952C7.34748 12.6087 7.29749 12.3188 7.14755 12.1739C6.9976 12.029 6.79767 11.9324 6.59773 11.9324C6.3978 11.9324 6.19787 12.029 6.04792 12.1739C5.89798 12.3188 5.84799 12.5604 5.84799 12.8986Z" fill="#81489C"/>
<path d="M8.69699 14.6377V13.9614L9.99654 12.5121C10.1965 12.2705 10.3464 12.1256 10.4464 12.029C10.3464 12.029 10.1965 12.029 10.0465 12.029H8.84694V11.3044H11.696V11.9324L10.3964 13.3816L9.94656 13.8647C10.1965 13.8647 10.3464 13.8647 10.3964 13.8647H11.7959V14.6377H8.69699Z" fill="#81489C"/>
<path d="M12.7456 10.9179L12.5457 10.628L15.0948 9.22705L15.2947 9.56521L12.7456 10.9179Z" fill="black"/>
</g>
<defs>
<clipPath id="clip0_13_735">
<rect width="145" height="20" fill="white"/>
</clipPath>
</defs>
</svg>
