<svg width="154px" height="99px" viewBox="0 0 154 99" style="background-color: #ffffff00" xmlns="http://www.w3.org/2000/svg" xmlns:xlink="http://www.w3.org/1999/xlink" version="1.1" >
<path stroke="none" fill="#000000" transform="matrix(0.0666667 0 0 0.0666667 -364.967 -402)" d="M 6030.88,6884.54 L 6024.88,6888 L 6018.88,6884.54 L 6018.88,6597.54 L 6030.88,6604.46 L 6030.88,6884.54 Z " />
<path stroke="none" fill="#000000" transform="matrix(0.0666667 0 0 0.0666667 -364.967 -402)" d="M 6082.54,6858.17 L 6070.54,6858.17 L 6070.54,6630.83 L 6082.54,6630.83 L 6082.54,6858.17 Z " />
<path stroke="none" fill="#000000" transform="matrix(0.0666667 0 0 0.0666667 -364.967 -402)" d="M 6273.43,7024.57 L 6273.43,7038.43 L 6024.88,6894.93 L 6024.88,6888 L 6030.88,6884.54 L 6273.43,7024.57 Z " />
<path stroke="none" fill="#000000" transform="matrix(0.0666667 0 0 0.0666667 -364.967 -402)" d="M 6515.98,6884.54 L 6521.98,6888 L 6521.98,6894.93 L 6273.43,7038.43 L 6273.43,7024.57 L 6515.98,6884.54 Z " />
<path stroke="none" fill="#000000" transform="matrix(0.0666667 0 0 0.0666667 -364.967 -402)" d="M 6467.32,6852.98 L 6473.32,6863.37 L 6276.43,6977.04 L 6270.43,6966.65 L 6467.32,6852.98 Z " />
<path stroke="none" fill="#000000" transform="matrix(0.0666667 0 0 0.0666667 -364.967 -402)" d="M 6515.98,6604.46 L 6521.98,6601 L 6527.98,6604.46 L 6527.98,6884.54 L 6521.98,6888 L 6515.98,6884.54 L 6515.98,6604.46 Z " />
<path stroke="none" fill="#000000" transform="matrix(0.0666667 0 0 0.0666667 -364.967 -402)" d="M 6273.43,6464.43 L 6273.43,6450.57 L 6521.98,6594.07 L 6521.98,6601 L 6515.98,6604.46 L 6273.43,6464.43 Z " />
<path stroke="none" fill="#000000" transform="matrix(0.0666667 0 0 0.0666667 -364.967 -402)" d="M 6270.43,6522.35 L 6276.43,6511.96 L 6473.32,6625.63 L 6467.32,6636.02 L 6270.43,6522.35 Z " />
<path stroke="none" fill="#000000" transform="matrix(0.0666667 0 0 0.0666667 -364.967 -402)" d="M 6030.88,6604.46 L 6018.88,6597.54 L 6273.43,6450.57 L 6273.43,6464.43 L 6030.88,6604.46 Z " />
<text x="0" y="0" stroke="none" fill="#000000" transform="matrix(0.0666667 0 0 0.0666667 81.2166 72)" font-style="normal" font-weight="bold" font-size="200px" font-family="Arial" >
O</text>
<path stroke="none" fill="#000000" transform="matrix(0.0666667 0 0 0.0666667 -364.967 -402)" d="M 6684.56,6974.93 L 6678.56,6985.33 L 6521.98,6894.93 L 6521.98,6888 L 6527.98,6884.54 L 6684.56,6974.93 Z " />
<path stroke="none" fill="#000000" transform="matrix(0.0666667 0 0 0.0666667 -364.967 -402)" d="M 7013.08,6884.54 L 7025.08,6891.46 L 6863.03,6985.02 L 6857.03,6974.63 L 7013.08,6884.54 Z " />
<path stroke="none" fill="#000000" transform="matrix(0.0666667 0 0 0.0666667 -364.967 -402)" d="M 7013.08,6604.46 L 7019.08,6601 L 7025.08,6604.46 L 7025.08,6891.46 L 7013.08,6884.54 L 7013.08,6604.46 Z " />
<path stroke="none" fill="#000000" transform="matrix(0.0666667 0 0 0.0666667 -364.967 -402)" d="M 6770.53,6464.43 L 6770.53,6450.57 L 7019.08,6594.07 L 7019.08,6601 L 7013.08,6604.46 L 6770.53,6464.43 Z " />
<path stroke="none" fill="#000000" transform="matrix(0.0666667 0 0 0.0666667 -364.967 -402)" d="M 6767.53,6522.35 L 6773.53,6511.96 L 6970.42,6625.63 L 6964.42,6636.02 L 6767.53,6522.35 Z " />
<path stroke="none" fill="#000000" transform="matrix(0.0666667 0 0 0.0666667 -364.967 -402)" d="M 6527.98,6604.46 L 6521.98,6601 L 6521.98,6594.07 L 6770.53,6450.57 L 6770.53,6464.43 L 6527.98,6604.46 Z " />
<text x="0" y="0" stroke="none" fill="#000000" transform="matrix(0.0666667 0 0 0.0666667 15.3078 72)" font-style="normal" font-weight="bold" font-size="200px" font-family="Arial" >
N</text>
<path stroke="none" fill="#000000" transform="matrix(0.0666667 0 0 0.0666667 -364.967 -402)" d="M 5878.47,6979.46 L 5872.47,6969.07 L 6018.88,6884.54 L 6024.88,6888 L 6024.88,6894.93 L 5878.47,6979.46 Z " />
<text x="0" y="0" stroke="none" fill="#000000" transform="matrix(0.0666667 0 0 0.0666667 114.356 72)" font-style="normal" font-weight="bold" font-size="200px" font-family="Arial" >
O</text>
<path stroke="none" fill="#000000" transform="matrix(0.0666667 0 0 0.0666667 -364.967 -402)" d="M 7194.57,6952.56 L 7188.57,6962.96 L 7016.08,6863.37 L 7022.08,6852.98 L 7194.57,6952.56 Z " />
<path stroke="none" fill="#000000" transform="matrix(0.0666667 0 0 0.0666667 -364.967 -402)" d="M 7168.74,6997.3 L 7162.74,7007.7 L 6990.25,6908.11 L 6996.25,6897.72 L 7168.74,6997.3 Z " />
<path stroke="none" fill="#000000" transform="matrix(0.0666667 0 0 0.0666667 -364.967 -402)" d="M 7267.63,6450.57 L 7267.63,6464.43 L 7025.08,6604.46 L 7019.08,6601 L 7019.08,6594.07 L 7267.63,6450.57 Z " />
<text x="0" y="0" stroke="none" fill="#000000" transform="matrix(0.0666667 0 0 0.0666667 130.926 43.3)" font-style="normal" font-weight="bold" font-size="200px" font-family="Arial" >
OH</text>
<path stroke="none" fill="#000000" transform="matrix(0.0666667 0 0 0.0666667 -364.967 -402)" d="M 7430.2,6544.43 L 7424.2,6554.83 L 7267.63,6464.43 L 7267.63,6450.57 L 7430.2,6544.43 Z " />
<text x="0" y="0" stroke="none" fill="#000000" transform="matrix(0.0666667 0 0 0.0666667 114.356 14.6)" font-style="normal" font-weight="bold" font-size="200px" font-family="Arial" >
O</text>
<path stroke="none" fill="#000000" transform="matrix(0.0666667 0 0 0.0666667 -364.967 -402)" d="M 7235.8,6278.83 L 7247.8,6278.83 L 7247.8,6472.41 L 7235.8,6472.41 L 7235.8,6278.83 Z " />
<path stroke="none" fill="#000000" transform="matrix(0.0666667 0 0 0.0666667 -364.967 -402)" d="M 7287.46,6278.83 L 7299.46,6278.83 L 7299.46,6472.41 L 7287.46,6472.41 L 7287.46,6278.83 Z " />
<path stroke="none" fill="#000000" transform="matrix(0.0666667 0 0 0.0666667 -364.967 -402)" d="M 5782.33,7315.04 L 5770.33,7321.96 L 5770.33,7137.17 L 5782.33,7137.17 L 5782.33,7315.04 Z " />
<path stroke="none" fill="#000000" transform="matrix(0.0666667 0 0 0.0666667 -364.967 -402)" d="M 5521.79,6891.46 L 5533.79,6884.54 L 5679.12,6968.45 L 5673.12,6978.84 L 5521.79,6891.46 Z " />
<path stroke="none" fill="#000000" transform="matrix(0.0666667 0 0 0.0666667 -364.967 -402)" d="M 5521.79,6601 L 5533.79,6601 L 5533.79,6884.54 L 5521.79,6891.46 L 5521.79,6601 Z " />
<path stroke="none" fill="#000000" transform="matrix(0.0666667 0 0 0.0666667 -364.967 -402)" d="M 6027.88,7456.8 L 6021.88,7467.2 L 5770.33,7321.96 L 5782.33,7315.04 L 6027.88,7456.8 Z " />
</svg>
