<svg width="187px" height="141px" viewBox="0 0 187 141" style="background-color: #ffffff00" xmlns="http://www.w3.org/2000/svg" xmlns:xlink="http://www.w3.org/1999/xlink" version="1.1" >
<text x="0" y="0" stroke="none" fill="#000000" transform="matrix(0.0666667 0 0 0.0666667 145.301 36.6555)" font-style="normal" font-weight="bold" font-size="200px" font-family="Arial" >
O</text>
<text x="0" y="0" stroke="none" fill="#000000" transform="matrix(0.0666667 0 0 0.0666667 162.242 65.3555)" font-style="normal" font-weight="bold" font-size="200px" font-family="Arial" >
N</text>
<text x="0" y="0" stroke="none" fill="#000000" transform="matrix(0.0666667 0 0 0.0666667 162.242 76.4777)" font-style="normal" font-weight="bold" font-size="200px" font-family="Arial" >
H</text>
<text x="0" y="0" stroke="none" fill="#000000" transform="matrix(0.0666667 0 0 0.0666667 112.532 44.6666)" font-style="normal" font-weight="bold" font-size="200px" font-family="Arial" >
H</text>
<text x="0" y="0" stroke="none" fill="#000000" transform="matrix(0.0666667 0 0 0.0666667 112.532 55.7888)" font-style="normal" font-weight="bold" font-size="200px" font-family="Arial" >
N</text>
<text x="0" y="0" stroke="none" fill="#000000" transform="matrix(0.0666667 0 0 0.0666667 95.5911 84.4888)" font-style="normal" font-weight="bold" font-size="200px" font-family="Arial" >
O</text>
<text x="0" y="0" stroke="none" fill="#000000" transform="matrix(0.0666667 0 0 0.0666667 45.8813 36.6555)" font-style="normal" font-weight="bold" font-size="200px" font-family="Arial" >
O</text>
<text x="0" y="0" stroke="none" fill="#000000" transform="matrix(0.0666667 0 0 0.0666667 29.6824 65.3555)" font-style="normal" font-weight="bold" font-size="200px" font-family="Arial" >
N</text>
<text x="0" y="0" stroke="none" fill="#000000" transform="matrix(0.0666667 0 0 0.0666667 29.6824 76.4777)" font-style="normal" font-weight="bold" font-size="200px" font-family="Arial" >
H</text>
<text x="0" y="0" stroke="none" fill="#000000" transform="matrix(0.0666667 0 0 0.0666667 3.11245 55.7888)" font-style="normal" font-weight="bold" font-size="200px" font-family="Arial" >
HO</text>
<text x="0" y="0" stroke="none" fill="#000000" transform="matrix(0.0666667 0 0 0.0666667 46.6202 94.0555)" font-style="normal" font-weight="bold" font-size="200px" font-family="Arial" >
S</text>
<text x="0" y="0" stroke="none" fill="#000000" transform="matrix(0.0666667 0 0 0.0666667 62.0994 124.435)" font-style="normal" font-weight="bold" font-size="200px" font-family="Arial" >
S</text>
<path stroke="none" fill="#000000" transform="matrix(0.0666667 0 0 0.0666667 -347.967 -420)" d="M 7508.63,7073.24 L 7496.63,7073.24 L 7496.63,6879.67 L 7508.63,6879.67 L 7508.63,7073.24 Z " />
<path stroke="none" fill="#000000" transform="matrix(0.0666667 0 0 0.0666667 -347.967 -420)" d="M 7456.97,7073.24 L 7444.97,7073.24 L 7444.97,6879.67 L 7456.97,6879.67 L 7456.97,7073.24 Z " />
<path stroke="none" fill="#000000" transform="matrix(0.0666667 0 0 0.0666667 -347.967 -420)" d="M 7628.13,7138.78 L 7622.13,7149.17 L 7476.8,7065.26 L 7476.8,7051.4 L 7628.13,7138.78 Z " />
<path stroke="none" fill="#000000" transform="matrix(0.0666667 0 0 0.0666667 -347.967 -420)" d="M 7970.9,7053.14 L 7976.9,7063.53 L 7827.49,7149.79 L 7821.49,7139.4 L 7970.9,7053.14 Z " />
<path stroke="none" fill="#000000" transform="matrix(0.0666667 0 0 0.0666667 -347.967 -420)" d="M 7228.25,7208.76 L 7228.25,7194.9 L 7476.8,7051.4 L 7476.8,7065.26 L 7228.25,7208.76 Z " />
<path stroke="none" fill="#000000" transform="matrix(0.0666667 0 0 0.0666667 -347.967 -420)" d="M 7078.22,7122.14 L 7084.22,7111.75 L 7228.25,7194.9 L 7228.25,7208.76 L 7078.22,7122.14 Z " />
<path stroke="none" fill="#000000" transform="matrix(0.0666667 0 0 0.0666667 -347.967 -420)" d="M 6731.15,7208.76 L 6731.15,7194.9 L 6874.1,7112.37 L 6880.1,7122.76 L 6731.15,7208.76 Z " />
<path stroke="none" fill="#000000" transform="matrix(0.0666667 0 0 0.0666667 -347.967 -420)" d="M 6762.98,7386.17 L 6750.98,7386.17 L 6750.98,7186.92 L 6762.98,7186.92 L 6762.98,7386.17 Z " />
<path stroke="none" fill="#000000" transform="matrix(0.0666667 0 0 0.0666667 -347.967 -420)" d="M 6711.32,7386.17 L 6699.32,7386.17 L 6699.32,7186.92 L 6711.32,7186.92 L 6711.32,7386.17 Z " />
<path stroke="none" fill="#000000" transform="matrix(0.0666667 0 0 0.0666667 -347.967 -420)" d="M 6482.6,7065.26 L 6482.6,7058.33 L 6488.88,7055.03 L 6731.15,7194.9 L 6731.15,7208.76 L 6482.6,7065.26 Z " />
<path stroke="none" fill="#000000" transform="matrix(0.0666667 0 0 0.0666667 -347.967 -420)" d="M 6234.05,7208.76 L 6234.05,7194.9 L 6476.32,7055.03 L 6482.6,7058.33 L 6482.6,7065.26 L 6234.05,7208.76 Z " />
<path stroke="none" fill="#000000" transform="matrix(0.0666667 0 0 0.0666667 -347.967 -420)" d="M 5985.5,7065.26 L 5985.5,7051.4 L 6234.05,7194.9 L 6234.05,7208.76 L 5985.5,7065.26 Z " />
<path stroke="none" fill="#000000" transform="matrix(0.0666667 0 0 0.0666667 -347.967 -420)" d="M 5953.67,6879.67 L 5965.67,6879.67 L 5965.67,7073.24 L 5953.67,7073.24 L 5953.67,6879.67 Z " />
<path stroke="none" fill="#000000" transform="matrix(0.0666667 0 0 0.0666667 -347.967 -420)" d="M 6005.33,6879.67 L 6017.33,6879.67 L 6017.33,7073.24 L 6005.33,7073.24 L 6005.33,6879.67 Z " />
<path stroke="none" fill="#000000" transform="matrix(0.0666667 0 0 0.0666667 -347.967 -420)" d="M 5839.09,7149.79 L 5833.09,7139.4 L 5985.5,7051.4 L 5985.5,7065.26 L 5839.09,7149.79 Z " />
<path stroke="none" fill="#000000" transform="matrix(0.0666667 0 0 0.0666667 -347.967 -420)" d="M 5577.7,7116.82 L 5583.7,7106.42 L 5639.74,7138.78 L 5633.74,7149.17 L 5577.7,7116.82 Z " />
<path stroke="none" fill="#000000" transform="matrix(0.0666667 0 0 0.0666667 -347.967 -420)" d="M 6264.05,7438.83 L 6204.05,7438.83 L 6205.59,7426.83 L 6262.51,7426.83 L 6264.05,7438.83 Z " />
<path stroke="none" fill="#000000" transform="matrix(0.0666667 0 0 0.0666667 -347.967 -420)" d="M 6256.56,7380.5 L 6211.54,7380.5 L 6213.08,7368.5 L 6255.02,7368.5 L 6256.56,7380.5 Z " />
<path stroke="none" fill="#000000" transform="matrix(0.0666667 0 0 0.0666667 -347.967 -420)" d="M 6249.08,7322.17 L 6219.02,7322.17 L 6220.56,7310.17 L 6247.54,7310.17 L 6249.08,7322.17 Z " />
<path stroke="none" fill="#000000" transform="matrix(0.0666667 0 0 0.0666667 -347.967 -420)" d="M 6241.59,7263.83 L 6226.51,7263.83 L 6228.05,7251.83 L 6240.05,7251.83 L 6241.59,7263.83 Z " />
<path stroke="none" fill="#000000" transform="matrix(0.0666667 0 0 0.0666667 -347.967 -420)" d="M 6072.45,7589.06 L 6066.45,7578.67 L 6231.05,7483.64 L 6237.05,7494.03 L 6072.45,7589.06 Z " />
<path stroke="none" fill="#000000" transform="matrix(0.0666667 0 0 0.0666667 -347.967 -420)" d="M 5991.5,7916.27 L 5985.5,7919.33 L 5979.5,7916.27 L 5979.5,7740.67 L 5991.5,7740.67 L 5991.5,7916.27 Z " />
<path stroke="none" fill="#000000" transform="matrix(0.0666667 0 0 0.0666667 -347.967 -420)" d="M 6139.54,8023.83 L 6132.49,8033.54 L 5985.5,7926.75 L 5985.5,7919.33 L 5991.5,7916.27 L 6139.54,8023.83 Z " />
<path stroke="none" fill="#000000" transform="matrix(0.0666667 0 0 0.0666667 -347.967 -420)" d="M 6133.36,8366.98 L 6124.64,8354.98 L 6178.08,8190.51 L 6189.49,8194.22 L 6133.36,8366.98 Z " />
<path stroke="none" fill="#000000" transform="matrix(0.0666667 0 0 0.0666667 -347.967 -420)" d="M 5837.64,8366.98 L 5846.36,8354.98 L 6124.64,8354.98 L 6133.36,8366.98 L 5837.64,8366.98 Z " />
<path stroke="none" fill="#000000" transform="matrix(0.0666667 0 0 0.0666667 -347.967 -420)" d="M 5879.54,8315.32 L 5879.54,8303.32 L 6091.47,8303.32 L 6091.47,8315.32 L 5879.54,8315.32 Z " />
<path stroke="none" fill="#000000" transform="matrix(0.0666667 0 0 0.0666667 -347.967 -420)" d="M 5746.26,8085.73 L 5760.37,8090.32 L 5846.36,8354.98 L 5837.64,8366.98 L 5746.26,8085.73 Z " />
<path stroke="none" fill="#000000" transform="matrix(0.0666667 0 0 0.0666667 -347.967 -420)" d="M 5760.37,8090.32 L 5746.26,8085.73 L 5979.5,7916.27 L 5985.5,7919.33 L 5985.5,7926.75 L 5760.37,8090.32 Z " />
<path stroke="none" fill="#000000" transform="matrix(0.0666667 0 0 0.0666667 -347.967 -420)" d="M 5817.57,8112.61 L 5810.52,8102.9 L 5981.98,7978.33 L 5989.03,7988.04 L 5817.57,8112.61 Z " />
<path stroke="none" fill="#000000" transform="matrix(0.0666667 0 0 0.0666667 -347.967 -420)" d="M 6453.43,6781.25 L 6513.51,6760.41 L 6488.88,7055.03 L 6482.6,7058.33 L 6476.32,7055.03 L 6453.43,6781.25 Z " />
<path stroke="none" fill="#000000" transform="matrix(0.0666667 0 0 0.0666667 -347.967 -420)" d="M 6725.15,6624.37 L 6731.15,6627.83 L 6731.15,6634.76 L 6513.51,6760.41 L 6453.43,6781.25 L 6725.15,6624.37 Z " />
<path stroke="none" fill="#000000" transform="matrix(0.0666667 0 0 0.0666667 -347.967 -420)" d="M 6982.7,6766.14 L 6976.7,6776.53 L 6731.15,6634.76 L 6731.15,6627.83 L 6737.15,6624.37 L 6982.7,6766.14 Z " />
<path stroke="none" fill="#000000" transform="matrix(0.0666667 0 0 0.0666667 -347.967 -420)" d="M 6725.15,6340.83 L 6737.15,6340.83 L 6737.15,6624.37 L 6731.15,6627.83 L 6725.15,6624.37 L 6725.15,6340.83 Z " />
<path stroke="none" fill="#000000" transform="matrix(0.0666667 0 0 0.0666667 -347.967 -420)" d="M 7258.25,7438.83 L 7198.25,7438.83 L 7199.79,7426.83 L 7256.71,7426.83 L 7258.25,7438.83 Z " />
<path stroke="none" fill="#000000" transform="matrix(0.0666667 0 0 0.0666667 -347.967 -420)" d="M 7250.76,7380.5 L 7205.74,7380.5 L 7207.28,7368.5 L 7249.22,7368.5 L 7250.76,7380.5 Z " />
<path stroke="none" fill="#000000" transform="matrix(0.0666667 0 0 0.0666667 -347.967 -420)" d="M 7243.28,7322.17 L 7213.22,7322.17 L 7214.76,7310.17 L 7241.74,7310.17 L 7243.28,7322.17 Z " />
<path stroke="none" fill="#000000" transform="matrix(0.0666667 0 0 0.0666667 -347.967 -420)" d="M 7235.79,7263.83 L 7220.71,7263.83 L 7222.25,7251.83 L 7234.25,7251.83 L 7235.79,7263.83 Z " />
<path stroke="none" fill="#000000" transform="matrix(0.0666667 0 0 0.0666667 -347.967 -420)" d="M 7476.8,7625.4 L 7476.8,7632.33 L 7470.8,7635.8 L 7225.25,7494.03 L 7231.25,7483.64 L 7476.8,7625.4 Z " />
<path stroke="none" fill="#000000" transform="matrix(0.0666667 0 0 0.0666667 -347.967 -420)" d="M 7725.35,7481.9 L 7725.35,7495.76 L 7482.8,7635.8 L 7476.8,7632.33 L 7476.8,7625.4 L 7725.35,7481.9 Z " />
<path stroke="none" fill="#000000" transform="matrix(0.0666667 0 0 0.0666667 -347.967 -420)" d="M 7722.35,7543.29 L 7728.35,7553.68 L 7531.46,7667.35 L 7525.46,7656.96 L 7722.35,7543.29 Z " />
<path stroke="none" fill="#000000" transform="matrix(0.0666667 0 0 0.0666667 -347.967 -420)" d="M 7979.9,7628.87 L 7967.9,7635.8 L 7725.35,7495.76 L 7725.35,7481.9 L 7979.9,7628.87 Z " />
<path stroke="none" fill="#000000" transform="matrix(0.0666667 0 0 0.0666667 -347.967 -420)" d="M 7979.9,7922.8 L 7967.9,7915.87 L 7967.9,7635.8 L 7979.9,7628.87 L 7979.9,7922.8 Z " />
<path stroke="none" fill="#000000" transform="matrix(0.0666667 0 0 0.0666667 -347.967 -420)" d="M 7928.24,7889.51 L 7916.24,7889.51 L 7916.24,7662.16 L 7928.24,7662.16 L 7928.24,7889.51 Z " />
<path stroke="none" fill="#000000" transform="matrix(0.0666667 0 0 0.0666667 -347.967 -420)" d="M 7725.35,8069.76 L 7725.35,8055.9 L 7967.9,7915.87 L 7979.9,7922.8 L 7725.35,8069.76 Z " />
<path stroke="none" fill="#000000" transform="matrix(0.0666667 0 0 0.0666667 -347.967 -420)" d="M 7470.8,7922.8 L 7482.8,7915.87 L 7725.35,8055.9 L 7725.35,8069.76 L 7470.8,7922.8 Z " />
<path stroke="none" fill="#000000" transform="matrix(0.0666667 0 0 0.0666667 -347.967 -420)" d="M 7525.46,7894.7 L 7531.46,7884.31 L 7728.35,7997.98 L 7722.35,8008.38 L 7525.46,7894.7 Z " />
<path stroke="none" fill="#000000" transform="matrix(0.0666667 0 0 0.0666667 -347.967 -420)" d="M 7482.8,7915.87 L 7470.8,7922.8 L 7470.8,7635.8 L 7476.8,7632.33 L 7482.8,7635.8 L 7482.8,7915.87 Z " />
</svg>