<svg width="61px" height="118px" viewBox="0 0 61 118" style="background-color: #ffffff00" xmlns="http://www.w3.org/2000/svg" xmlns:xlink="http://www.w3.org/1999/xlink" version="1.1" >
<path stroke="none" fill="#000000" transform="matrix(0.0666667 0 0 0.0666667 -448.967 -437)" d="M 7607.88,7122.79 L 7595.88,7129.71 L 7353.33,6989.68 L 7353.33,6975.82 L 7607.88,7122.79 Z " />
<path stroke="none" fill="#000000" transform="matrix(0.0666667 0 0 0.0666667 -448.967 -437)" d="M 7553.22,7150.88 L 7547.22,7161.27 L 7350.33,7047.6 L 7356.33,7037.21 L 7553.22,7150.88 Z " />
<path stroke="none" fill="#000000" transform="matrix(0.0666667 0 0 0.0666667 -448.967 -437)" d="M 7607.88,7416.71 L 7595.88,7409.79 L 7595.88,7129.71 L 7607.88,7122.79 L 7607.88,7416.71 Z " />
<path stroke="none" fill="#000000" transform="matrix(0.0666667 0 0 0.0666667 -448.967 -437)" d="M 7359.33,7560.21 L 7353.33,7556.75 L 7353.33,7549.82 L 7595.88,7409.79 L 7607.88,7416.71 L 7359.33,7560.21 Z " />
<path stroke="none" fill="#000000" transform="matrix(0.0666667 0 0 0.0666667 -448.967 -437)" d="M 7356.33,7502.29 L 7350.33,7491.9 L 7547.22,7378.23 L 7553.22,7388.62 L 7356.33,7502.29 Z " />
<path stroke="none" fill="#000000" transform="matrix(0.0666667 0 0 0.0666667 -448.967 -437)" d="M 7098.78,7416.71 L 7110.78,7409.79 L 7353.33,7549.82 L 7353.33,7556.75 L 7347.33,7560.21 L 7098.78,7416.71 Z " />
<path stroke="none" fill="#000000" transform="matrix(0.0666667 0 0 0.0666667 -448.967 -437)" d="M 7098.78,7129.71 L 7104.78,7126.25 L 7110.78,7129.71 L 7110.78,7409.79 L 7098.78,7416.71 L 7098.78,7129.71 Z " />
<path stroke="none" fill="#000000" transform="matrix(0.0666667 0 0 0.0666667 -448.967 -437)" d="M 7150.44,7156.08 L 7162.44,7156.08 L 7162.44,7383.42 L 7150.44,7383.42 L 7150.44,7156.08 Z " />
<path stroke="none" fill="#000000" transform="matrix(0.0666667 0 0 0.0666667 -448.967 -437)" d="M 7353.33,6975.82 L 7353.33,6989.68 L 7110.78,7129.71 L 7104.78,7126.25 L 7104.78,7119.32 L 7353.33,6975.82 Z " />
<path stroke="none" fill="#000000" transform="matrix(0.0666667 0 0 0.0666667 -448.967 -437)" d="M 6850.23,6986.21 L 6862.23,6979.29 L 7104.78,7119.32 L 7104.78,7126.25 L 7098.78,7129.71 L 6850.23,6986.21 Z " />
<text x="0" y="0" stroke="none" fill="#000000" transform="matrix(0.0666667 0 0 0.0666667 36.4407 91.15)" font-style="normal" font-weight="bold" font-size="200px" font-family="Arial" >
NH</text>
<path stroke="none" fill="#000000" transform="matrix(0.0666667 0 0 0.0666667 -448.967 -437)" d="M 7359.33,7743.42 L 7347.33,7743.42 L 7347.33,7560.21 L 7353.33,7556.75 L 7359.33,7560.21 L 7359.33,7743.42 Z " />
<text x="0" y="0" stroke="none" fill="#000000" transform="matrix(0.0666667 0 0 0.0666667 4.65174 14.6167)" font-style="normal" font-weight="bold" font-size="200px" font-family="Arial" >
O</text>
<path stroke="none" fill="#000000" transform="matrix(0.0666667 0 0 0.0666667 -448.967 -437)" d="M 6850.23,6804.08 L 6862.23,6804.08 L 6862.23,6979.29 L 6850.23,6986.21 L 6850.23,6804.08 Z " />
<path stroke="none" fill="#000000" transform="matrix(0.0666667 0 0 0.0666667 -448.967 -437)" d="M 6901.89,6804.08 L 6913.89,6804.08 L 6913.89,6952.92 L 6901.89,6952.92 L 6901.89,6804.08 Z " />
<path stroke="none" fill="#000000" transform="matrix(0.0666667 0 0 0.0666667 -448.967 -437)" d="M 7110.78,7990.71 L 7098.78,7983.79 L 7247.8,7897.75 L 7253.8,7908.14 L 7110.78,7990.71 Z " />
<path stroke="none" fill="#000000" transform="matrix(0.0666667 0 0 0.0666667 -448.967 -437)" d="M 7110.78,8274.25 L 7098.78,8274.25 L 7098.78,7983.79 L 7110.78,7990.71 L 7110.78,8274.25 Z " />
<text x="0" y="0" stroke="none" fill="#000000" transform="matrix(0.0666667 0 0 0.0666667 2.92974 91.15)" font-style="normal" font-weight="bold" font-size="200px" font-family="Arial" >
O</text>
<path stroke="none" fill="#000000" transform="matrix(0.0666667 0 0 0.0666667 -448.967 -437)" d="M 6932.5,7924.54 L 6938.5,7914.15 L 7107.78,8011.88 L 7101.78,8022.27 L 6932.5,7924.54 Z " />
<path stroke="none" fill="#000000" transform="matrix(0.0666667 0 0 0.0666667 -448.967 -437)" d="M 6958.33,7879.8 L 6964.33,7869.41 L 7133.61,7967.14 L 7127.61,7977.53 L 6958.33,7879.8 Z " />
</svg>