<svg width="145" height="66" viewBox="0 0 145 66" fill="none" xmlns="http://www.w3.org/2000/svg">
<path d="M93.7614 60.918V48.114H96.2705L101.553 56.694V48.114H103.93V60.918H101.355L96.2045 52.536V60.918H93.7614Z" fill="#81489C"/>
<path d="M77.122 40.722L76.5938 41.052L76.0656 40.722V14.916L77.122 15.51V40.722Z" fill="black"/>
<path d="M81.7441 38.346H80.6876V17.886H81.7441V38.346Z" fill="black"/>
<path d="M90.1958 48.246L89.6676 49.17L76.5938 41.646V41.052L77.122 40.722L90.1958 48.246Z" fill="black"/>
<path d="M120.767 40.722L121.296 41.052V41.646L108.09 49.236L107.561 48.312L120.767 40.722Z" fill="black"/>
<path d="M116.343 37.884L116.872 38.808L105.713 45.21L105.184 44.286L116.343 37.884Z" fill="black"/>
<path d="M120.767 15.51L121.824 14.916V40.722L121.296 41.052L120.767 40.722V15.51Z" fill="black"/>
<path d="M98.9117 2.904V1.716L121.824 14.916L120.767 15.51L98.9117 2.904Z" fill="black"/>
<path d="M98.6475 8.118L99.1758 7.194L116.872 17.424L116.343 18.348L98.6475 8.118Z" fill="black"/>
<path d="M77.122 15.51L76.0656 14.916L98.9777 1.716V2.97L77.122 15.51Z" fill="black"/>
<path d="M143.877 53.46L143.349 54.384L121.296 41.646V41.052L121.824 40.722L143.877 53.46Z" fill="black"/>
<path d="M2.245 48.114H7.39527C8.3857 48.114 9.17806 48.18 9.64026 48.246C10.1685 48.312 10.5647 48.51 10.9608 48.774C11.357 49.038 11.6872 49.368 11.9513 49.83C12.2154 50.292 12.3475 50.754 12.3475 51.348C12.3475 51.942 12.2154 52.47 11.8852 52.998C11.5551 53.526 11.0929 53.856 10.5647 54.12C11.357 54.318 11.9513 54.714 12.3475 55.308C12.7436 55.836 13.0077 56.496 13.0077 57.222C13.0077 57.816 12.8757 58.344 12.6116 58.938C12.3475 59.532 11.9513 59.928 11.4891 60.258C11.0269 60.588 10.4326 60.786 9.77232 60.852C9.31011 60.918 8.31968 60.918 6.66895 60.918H2.245V48.114ZM4.82013 50.226V53.196H6.53689C7.52733 53.196 8.18762 53.196 8.45173 53.13C8.91394 53.064 9.24408 52.932 9.5082 52.668C9.77232 52.404 9.90438 52.074 9.90438 51.678C9.90438 51.282 9.77232 50.952 9.57423 50.688C9.37614 50.424 9.046 50.292 8.58379 50.226C8.31968 50.226 7.59336 50.16 6.3388 50.16H4.82013V50.226ZM4.82013 55.374V58.806H7.26321C8.18762 58.806 8.78188 58.806 9.046 58.74C9.44217 58.674 9.77232 58.476 9.9704 58.212C10.2345 57.948 10.3006 57.552 10.3006 57.09C10.3006 56.694 10.2345 56.364 10.0364 56.1C9.83835 55.836 9.57423 55.638 9.24408 55.506C8.91394 55.374 8.12159 55.308 6.93306 55.308H4.82013V55.374Z" fill="#81489C"/>
<path d="M14.5924 56.166C14.5924 55.374 14.7905 54.582 15.1867 53.79C15.5829 52.998 16.1771 52.47 16.9035 52.008C17.6298 51.612 18.4882 51.414 19.3465 51.414C20.7331 51.414 21.9217 51.876 22.7801 52.8C23.7045 53.724 24.1006 54.846 24.1006 56.232C24.1006 57.618 23.6384 58.806 22.714 59.73C21.7896 60.654 20.6671 61.116 19.2805 61.116C18.4221 61.116 17.6298 60.918 16.8374 60.522C16.0451 60.126 15.4508 59.598 15.0546 58.806C14.7905 58.146 14.5924 57.222 14.5924 56.166ZM17.1015 56.298C17.1015 57.222 17.2996 57.948 17.7618 58.41C18.224 58.872 18.7523 59.136 19.4126 59.136C20.0729 59.136 20.6011 58.872 20.9973 58.41C21.4595 57.948 21.6576 57.222 21.6576 56.298C21.6576 55.374 21.4595 54.714 20.9973 54.186C20.5351 53.724 20.0068 53.46 19.4126 53.46C18.8183 53.46 18.224 53.724 17.7618 54.186C17.3657 54.648 17.1015 55.374 17.1015 56.298Z" fill="#81489C"/>
<path d="M34.2031 54.384L31.76 54.846C31.694 54.384 31.4959 53.988 31.2318 53.724C30.9677 53.46 30.5715 53.328 30.1093 53.328C29.515 53.328 28.9868 53.526 28.6566 53.988C28.3265 54.45 28.1284 55.11 28.1284 56.1C28.1284 57.222 28.3265 58.014 28.6566 58.41C29.0528 58.872 29.515 59.07 30.1753 59.07C30.6375 59.07 31.0337 58.938 31.2978 58.674C31.5619 58.41 31.826 57.948 31.9581 57.288L34.4012 57.684C34.1371 58.806 33.6749 59.598 32.9485 60.192C32.2222 60.786 31.2978 61.05 30.1093 61.05C28.7227 61.05 27.6662 60.654 26.8739 59.796C26.0815 58.938 25.6853 57.75 25.6853 56.232C25.6853 54.714 26.0815 53.526 26.8739 52.668C27.6662 51.81 28.7887 51.414 30.1753 51.414C31.2978 51.414 32.2222 51.678 32.8825 52.14C33.4768 52.668 33.939 53.394 34.2031 54.384Z" fill="#81489C"/>
<path d="M36.118 60.918V48.114H38.6931V53.13H43.7773V48.114H46.3525V60.918H43.7773V55.308H38.6931V60.918H36.118Z" fill="#81489C"/>
<path d="M49.0597 60.918V48.114H51.5688L56.8511 56.694V48.114H59.2281V60.918H56.653L51.5027 52.602V60.984H49.0597V60.918Z" fill="#81489C"/>
<path d="M63.388 49.236L62.8597 48.312L76.0656 40.656L76.5938 40.986V41.58L63.388 49.236Z" fill="black"/>
</svg>
