<svg width="111px" height="72px" viewBox="0 0 111 72" style="background-color: #ffffff00" xmlns="http://www.w3.org/2000/svg" xmlns:xlink="http://www.w3.org/1999/xlink" version="1.1" >
<path stroke="none" fill="#000000" transform="matrix(0.0666667 0 0 0.0666667 -205.967 -498)" d="M 3705.79,8158.32 L 3693.79,8165.25 L 3693.79,7878.25 L 3699.79,7874.78 L 3705.79,7878.25 L 3705.79,8158.32 Z " />
<path stroke="none" fill="#000000" transform="matrix(0.0666667 0 0 0.0666667 -205.967 -498)" d="M 3757.45,8131.96 L 3745.45,8131.96 L 3745.45,7904.61 L 3757.45,7904.61 L 3757.45,8131.96 Z " />
<path stroke="none" fill="#000000" transform="matrix(0.0666667 0 0 0.0666667 -205.967 -498)" d="M 3948.34,8298.35 L 3948.34,8312.21 L 3693.79,8165.25 L 3705.79,8158.32 L 3948.34,8298.35 Z " />
<path stroke="none" fill="#000000" transform="matrix(0.0666667 0 0 0.0666667 -205.967 -498)" d="M 4190.89,8158.32 L 4196.89,8161.78 L 4197.57,8168.31 L 3948.34,8312.21 L 3948.34,8298.35 L 4190.89,8158.32 Z " />
<path stroke="none" fill="#000000" transform="matrix(0.0666667 0 0 0.0666667 -205.967 -498)" d="M 4142.23,8126.76 L 4148.23,8137.15 L 3951.34,8250.83 L 3945.34,8240.43 L 4142.23,8126.76 Z " />
<path stroke="none" fill="#000000" transform="matrix(0.0666667 0 0 0.0666667 -205.967 -498)" d="M 4190.89,7878.25 L 4196.89,7874.78 L 4202.89,7879.14 L 4202.89,8157.42 L 4196.89,8161.78 L 4190.89,8158.32 L 4190.89,7878.25 Z " />
<path stroke="none" fill="#000000" transform="matrix(0.0666667 0 0 0.0666667 -205.967 -498)" d="M 3948.34,7738.21 L 3948.34,7724.35 L 4197.57,7868.25 L 4196.89,7874.78 L 4190.89,7878.25 L 3948.34,7738.21 Z " />
<path stroke="none" fill="#000000" transform="matrix(0.0666667 0 0 0.0666667 -205.967 -498)" d="M 3945.34,7796.13 L 3951.34,7785.74 L 4148.23,7899.41 L 4142.23,7909.8 L 3945.34,7796.13 Z " />
<path stroke="none" fill="#000000" transform="matrix(0.0666667 0 0 0.0666667 -205.967 -498)" d="M 3705.79,7878.25 L 3699.79,7874.78 L 3699.79,7867.85 L 3948.34,7724.35 L 3948.34,7738.21 L 3705.79,7878.25 Z " />
<text x="0" y="0" stroke="none" fill="#000000" transform="matrix(0.0666667 0 0 0.0666667 87.2082 57.2647)" font-style="normal" font-weight="bold" font-size="200px" font-family="Arial" >
N</text>
<text x="0" y="0" stroke="none" fill="#000000" transform="matrix(0.0666667 0 0 0.0666667 87.2082 68.3869)" font-style="normal" font-weight="bold" font-size="200px" font-family="Arial" >
H</text>
<text x="0" y="0" stroke="none" fill="#000000" transform="matrix(0.0666667 0 0 0.0666667 98.4545 41.7855)" font-style="normal" font-weight="bold" font-size="200px" font-family="Arial" >
N</text>
<path stroke="none" fill="#000000" transform="matrix(0.0666667 0 0 0.0666667 -205.967 -498)" d="M 4372.36,8212.49 L 4368.66,8223.9 L 4197.57,8168.31 L 4196.89,8161.78 L 4202.89,8157.42 L 4372.36,8212.49 Z " />
<path stroke="none" fill="#000000" transform="matrix(0.0666667 0 0 0.0666667 -205.967 -498)" d="M 4560.07,8116.07 L 4569.78,8123.12 L 4545.27,8156.86 L 4535.56,8149.8 L 4560.07,8116.07 Z " />
<path stroke="none" fill="#000000" transform="matrix(0.0666667 0 0 0.0666667 -205.967 -498)" d="M 4467.55,7793.15 L 4469.84,7786.09 L 4476.49,7785.04 L 4572.32,7916.93 L 4562.61,7923.99 L 4467.55,7793.15 Z " />
<path stroke="none" fill="#000000" transform="matrix(0.0666667 0 0 0.0666667 -205.967 -498)" d="M 4445.25,7850.35 L 4454.96,7843.3 L 4530.52,7947.3 L 4520.81,7954.35 L 4445.25,7850.35 Z " />
<path stroke="none" fill="#000000" transform="matrix(0.0666667 0 0 0.0666667 -205.967 -498)" d="M 4202.89,7879.14 L 4196.89,7874.78 L 4197.57,7868.25 L 4465.08,7781.33 L 4469.84,7786.09 L 4467.55,7793.15 L 4202.89,7879.14 Z " />
<path stroke="none" fill="#000000" transform="matrix(0.0666667 0 0 0.0666667 -205.967 -498)" d="M 4552.82,7511.29 L 4564.23,7515 L 4476.49,7785.04 L 4469.84,7786.09 L 4465.08,7781.33 L 4552.82,7511.29 Z " />
<path stroke="none" fill="#000000" transform="matrix(0.0666667 0 0 0.0666667 -205.967 -498)" d="M 3451.24,7738.21 L 3451.24,7724.35 L 3699.79,7867.85 L 3699.79,7874.78 L 3693.79,7878.25 L 3451.24,7738.21 Z " />
<text x="0" y="0" stroke="none" fill="#000000" transform="matrix(0.0666667 0 0 0.0666667 3.22141 33.7101)" font-style="normal" font-weight="bold" font-size="200px" font-family="Arial" >
O</text>
<path stroke="none" fill="#000000" transform="matrix(0.0666667 0 0 0.0666667 -205.967 -498)" d="M 3295.19,7828.3 L 3289.19,7817.91 L 3451.24,7724.35 L 3451.24,7738.21 L 3295.19,7828.3 Z " />
<path stroke="none" fill="#000000" transform="matrix(0.0666667 0 0 0.0666667 -205.967 -498)" d="M 3321.02,7873.04 L 3315.02,7862.65 L 3448.24,7785.74 L 3454.24,7796.13 L 3321.02,7873.04 Z " />
</svg>