<svg width="117px" height="137px" viewBox="0 0 117 137" style="background-color: #ffffff00" xmlns="http://www.w3.org/2000/svg" xmlns:xlink="http://www.w3.org/1999/xlink" version="1.1" >
<text x="0" y="0" stroke="none" fill="#000000" transform="matrix(0.0666667 0 0 0.0666667 19.6409 76.0041)" font-style="normal" font-weight="bold" font-size="200px" font-family="Arial" >
N</text>
<text x="0" y="0" stroke="none" fill="#000000" transform="matrix(0.0666667 0 0 0.0666667 35.1553 64.8064)" font-style="normal" font-weight="bold" font-size="200px" font-family="Arial" >
N</text>
<path stroke="none" fill="#000000" transform="matrix(0.0666667 0 0 0.0666667 -307.967 -218)" d="M 4848.56,3895.48 L 4844.22,3889.47 L 4847.29,3883.48 L 5135.59,3884.38 L 5126.84,3896.35 L 4848.56,3895.48 Z " />
<path stroke="none" fill="#000000" transform="matrix(0.0666667 0 0 0.0666667 -307.967 -218)" d="M 4761.73,4159.87 L 4747.61,4164.41 L 4837.56,3890.5 L 4844.22,3889.47 L 4848.56,3895.48 L 4761.73,4159.87 Z " />
<path stroke="none" fill="#000000" transform="matrix(0.0666667 0 0 0.0666667 -307.967 -218)" d="M 4821.16,4144.47 L 4809.76,4140.73 L 4875.89,3939.37 L 4887.29,3943.12 L 4821.16,4144.47 Z " />
<path stroke="none" fill="#000000" transform="matrix(0.0666667 0 0 0.0666667 -307.967 -218)" d="M 4894.2,4256.75 L 4887.12,4266.44 L 4747.61,4164.41 L 4761.73,4159.87 L 4894.2,4256.75 Z " />
<path stroke="none" fill="#000000" transform="matrix(0.0666667 0 0 0.0666667 -307.967 -218)" d="M 5117.01,4229.84 L 5124.03,4239.57 L 5084.89,4267.82 L 5077.87,4258.09 L 5117.01,4229.84 Z " />
<path stroke="none" fill="#000000" transform="matrix(0.0666667 0 0 0.0666667 -307.967 -218)" d="M 5126.84,3896.35 L 5135.59,3884.38 L 5189.7,4052.69 L 5178.27,4056.36 L 5126.84,3896.35 Z " />
<path stroke="none" fill="#000000" transform="matrix(0.0666667 0 0 0.0666667 -307.967 -218)" d="M 5087.81,3943.74 L 5099.23,3940.07 L 5140.52,4068.5 L 5129.09,4072.17 L 5087.81,3943.74 Z " />
<path stroke="none" fill="#000000" transform="matrix(0.0666667 0 0 0.0666667 -307.967 -218)" d="M 4669.36,3657.45 L 4683.14,3656.05 L 4847.29,3883.48 L 4844.22,3889.47 L 4837.56,3890.5 L 4669.36,3657.45 Z " />
<text x="0" y="0" stroke="none" fill="#000000" transform="matrix(0.0666667 0 0 0.0666667 8.00572 14.2674)" font-style="normal" font-weight="bold" font-size="200px" font-family="Arial" >
O</text>
<path stroke="none" fill="#000000" transform="matrix(0.0666667 0 0 0.0666667 -307.967 -218)" d="M 4743.57,3492.16 L 4754.52,3497.07 L 4683.14,3656.05 L 4669.36,3657.45 L 4743.57,3492.16 Z " />
<path stroke="none" fill="#000000" transform="matrix(0.0666667 0 0 0.0666667 -307.967 -218)" d="M 4790.7,3513.32 L 4801.65,3518.23 L 4741.07,3653.16 L 4730.12,3648.24 L 4790.7,3513.32 Z " />
<path stroke="none" fill="#000000" transform="matrix(0.0666667 0 0 0.0666667 -307.967 -218)" d="M 4991.44,4615.12 L 4979.42,4622.01 L 4980,4437.21 L 4992,4437.25 L 4991.44,4615.12 Z " />
<path stroke="none" fill="#000000" transform="matrix(0.0666667 0 0 0.0666667 -307.967 -218)" d="M 5233.55,4755.91 L 5233.53,4762.84 L 5227.52,4766.28 L 4979.42,4622.01 L 4991.44,4615.12 L 5233.55,4755.91 Z " />
<path stroke="none" fill="#000000" transform="matrix(0.0666667 0 0 0.0666667 -307.967 -218)" d="M 5238.64,5046.39 L 5226.62,5053.28 L 5227.52,4766.28 L 5233.53,4762.84 L 5239.52,4766.32 L 5238.64,5046.39 Z " />
<path stroke="none" fill="#000000" transform="matrix(0.0666667 0 0 0.0666667 -307.967 -218)" d="M 5290.38,5020.19 L 5278.38,5020.16 L 5279.09,4792.81 L 5291.09,4792.85 L 5290.38,5020.19 Z " />
<path stroke="none" fill="#000000" transform="matrix(0.0666667 0 0 0.0666667 -307.967 -218)" d="M 5480.75,5187.19 L 5480.7,5201.04 L 5226.62,5053.28 L 5238.64,5046.39 L 5480.75,5187.19 Z " />
<path stroke="none" fill="#000000" transform="matrix(0.0666667 0 0 0.0666667 -307.967 -218)" d="M 5723.74,5047.91 L 5729.72,5051.4 L 5729.7,5058.32 L 5480.7,5201.04 L 5480.75,5187.19 L 5723.74,5047.91 Z " />
<path stroke="none" fill="#000000" transform="matrix(0.0666667 0 0 0.0666667 -307.967 -218)" d="M 5675.17,5016.2 L 5681.14,5026.61 L 5483.9,5139.67 L 5477.93,5129.26 L 5675.17,5016.2 Z " />
<path stroke="none" fill="#000000" transform="matrix(0.0666667 0 0 0.0666667 -307.967 -218)" d="M 5724.61,4767.84 L 5736.63,4760.95 L 5735.73,5047.95 L 5729.72,5051.4 L 5723.74,5047.91 L 5724.61,4767.84 Z " />
<path stroke="none" fill="#000000" transform="matrix(0.0666667 0 0 0.0666667 -307.967 -218)" d="M 5482.5,4627.05 L 5482.55,4613.19 L 5736.63,4760.95 L 5724.61,4767.84 L 5482.5,4627.05 Z " />
<path stroke="none" fill="#000000" transform="matrix(0.0666667 0 0 0.0666667 -307.967 -218)" d="M 5479.32,4684.96 L 5485.36,4674.58 L 5681.89,4788.88 L 5675.85,4799.25 L 5479.32,4684.96 Z " />
<path stroke="none" fill="#000000" transform="matrix(0.0666667 0 0 0.0666667 -307.967 -218)" d="M 5239.52,4766.32 L 5233.53,4762.84 L 5233.55,4755.91 L 5482.55,4613.19 L 5482.5,4627.05 L 5239.52,4766.32 Z " />
<text x="0" y="0" stroke="none" fill="#000000" transform="matrix(0.0666667 0 0 0.0666667 85.3693 133.612)" font-style="normal" font-weight="bold" font-size="200px" font-family="Arial" >
OMe</text>
<path stroke="none" fill="#000000" transform="matrix(0.0666667 0 0 0.0666667 -307.967 -218)" d="M 5892.01,5138.83 L 5885.98,5149.21 L 5729.7,5058.32 L 5729.72,5051.4 L 5735.73,5047.95 L 5892.01,5138.83 Z " />
</svg>