<svg width="82" height="98" viewBox="0 0 82 98" fill="none" xmlns="http://www.w3.org/2000/svg">
<g clip-path="url(#clip0_12_694)">
<path d="M19.2385 98V84.0903H21.9718L27.6487 93.3634V84.0903H30.2769V98H27.4385L21.8667 88.9376V98H19.2385Z" fill="#81489C"/>
<path d="M1.15641 76.0817L0 76.714V48.0516L1.15641 48.6839V76.0817Z" fill="black"/>
<path d="M6.20257 73.4473H5.04616V51.2129H6.20257V73.4473Z" fill="black"/>
<path d="M15.3487 84.3011L14.7179 85.3548L0 76.714L1.15641 76.0817L15.3487 84.3011Z" fill="black"/>
<path d="M48.4641 76.0817L49.0949 76.3979V77.0301L34.6923 85.3548L34.0615 84.3011L48.4641 76.0817Z" fill="black"/>
<path d="M43.7333 72.9204L44.3641 73.9742L32.2744 80.929L31.6436 79.8753L43.7333 72.9204Z" fill="black"/>
<path d="M48.4641 48.6839L49.6205 48.0516V76.0817L48.9897 76.3978L48.359 76.0817V48.6839H48.4641Z" fill="black"/>
<path d="M24.8103 34.9849V34.3527L25.441 34.0366L49.6205 48.0516L48.4641 48.6839L24.8103 34.9849Z" fill="black"/>
<path d="M24.4949 40.6753L25.1256 39.6215L44.3641 50.686L43.7333 51.7398L24.4949 40.6753Z" fill="black"/>
<path d="M1.15641 48.6839L0 48.0516L24.1795 34.0366L24.8103 34.3527V34.9849L1.15641 48.6839Z" fill="black"/>
<path d="M73.5897 89.886L72.959 90.9398L48.9897 77.0301V76.3979L49.6205 76.0817L73.5897 89.886Z" fill="black"/>
<path d="M19.2385 13.9097V0H21.9718L27.6487 9.27312V0H30.2769V13.9097H27.4385L21.8667 4.84731V13.9097H19.2385Z" fill="#81489C"/>
<path d="M33.2205 13.9097V0H36.059V5.47957H41.5256V0H44.3641V13.9097H41.5256V7.79785H36.059V13.9097H33.2205Z" fill="#81489C"/>
<path d="M47.3077 0H52.8795C53.9308 0 54.7718 0 55.2974 0.105376C55.8231 0.210753 56.3487 0.421505 56.7692 0.632258C57.1897 0.948387 57.5051 1.26452 57.8205 1.7914C58.1359 2.31828 58.241 2.84516 58.241 3.37204C58.241 4.0043 58.0308 4.63656 57.7154 5.16344C57.4 5.69032 56.8744 6.11183 56.2436 6.42796C57.0846 6.63871 57.7154 7.06021 58.241 7.69247C58.6615 8.43011 58.8718 9.06236 58.8718 9.90538C58.8718 10.5376 58.7667 11.1699 58.4513 11.8021C58.1359 12.4344 57.7154 12.8559 57.2949 13.2774C56.7692 13.5935 56.1385 13.8043 55.4026 13.9097C54.9821 13.9097 53.8256 14.0151 52.0385 14.0151H47.3077V0ZM50.041 2.31828V5.58495H51.8282C52.8795 5.58495 53.6154 5.58495 53.8256 5.58495C54.3513 5.47957 54.6667 5.37419 54.9821 5.05806C55.2974 4.74194 55.4026 4.42581 55.4026 4.0043C55.4026 3.5828 55.2974 3.26667 55.0872 2.95054C54.8769 2.63441 54.4564 2.52903 54.0359 2.42366C53.7205 2.42366 52.9846 2.42366 51.6179 2.42366H50.041V2.31828ZM50.041 7.90323V11.5914H52.6692C53.7205 11.5914 54.3513 11.5914 54.5615 11.486C54.9821 11.3806 55.2974 11.2753 55.6128 10.9591C55.8231 10.643 56.0333 10.2215 56.0333 9.8C56.0333 9.37849 55.9282 9.06237 55.7179 8.74624C55.5077 8.43011 55.1923 8.21935 54.8769 8.11398C54.5615 8.0086 53.6154 7.90323 52.3538 7.90323H50.041Z" fill="#81489C"/>
<path d="M60.659 8.74624C60.659 7.90323 60.8692 6.95484 61.2897 6.2172C61.7103 5.37419 62.341 4.74193 63.1821 4.32043C64.0231 3.89892 64.8641 3.68817 65.8103 3.68817C67.2821 3.68817 68.5436 4.21505 69.5949 5.16344C70.541 6.11183 71.0667 7.37634 71.0667 8.95699C71.0667 10.4323 70.541 11.8022 69.5949 12.7505C68.6487 13.6989 67.3872 14.2258 65.9154 14.2258C64.9692 14.2258 64.1282 14.0151 63.2872 13.5935C62.4462 13.172 61.8154 12.5398 61.3949 11.8021C60.8692 10.8538 60.659 9.90538 60.659 8.74624ZM63.3923 8.85161C63.3923 9.90538 63.6026 10.643 64.1282 11.1699C64.6539 11.6968 65.1795 12.0129 65.9154 12.0129C66.6513 12.0129 67.1769 11.6968 67.7026 11.1699C68.1231 10.643 68.4385 9.90538 68.4385 8.85161C68.4385 7.90322 68.2282 7.06021 67.7026 6.53333C67.2821 6.00645 66.6513 5.69032 65.9154 5.69032C65.1795 5.69032 64.6539 6.00645 64.1282 6.53333C63.6026 7.16559 63.3923 7.90322 63.3923 8.85161Z" fill="#81489C"/>
<path d="M81.8949 6.84946L79.2667 7.37634C79.1615 6.84946 78.9513 6.42796 78.6359 6.2172C78.3205 5.90107 77.9 5.7957 77.3744 5.7957C76.7436 5.7957 76.218 6.00645 75.7974 6.53333C75.3769 6.95484 75.1667 7.79785 75.1667 8.85161C75.1667 10.0108 75.3769 10.8538 75.7974 11.3806C76.218 11.9075 76.7436 12.1183 77.3744 12.1183C77.9 12.1183 78.3205 12.0129 78.6359 11.6968C78.9513 11.3806 79.1615 10.9591 79.2667 10.2215L82 10.5376C81.6846 11.6968 81.159 12.6452 80.4231 13.2774C79.6872 13.9097 78.6359 14.2258 77.2692 14.2258C75.7974 14.2258 74.641 13.8043 73.6949 12.8559C72.959 11.8021 72.5385 10.5376 72.5385 8.85161C72.5385 7.16559 72.959 5.90107 73.9051 4.95269C74.7462 4.0043 76.0077 3.58279 77.4795 3.58279C78.741 3.58279 79.6872 3.89892 80.4231 4.4258C81.0539 4.95269 81.5795 5.69032 81.8949 6.84946Z" fill="#81489C"/>
<path d="M24.1795 16.5441H25.3359V33.9312L24.7051 34.2473L24.1795 34.0366V16.5441Z" fill="black"/>
</g>
<defs>
<clipPath id="clip0_12_694">
<rect width="82" height="98" fill="white"/>
</clipPath>
</defs>
</svg>
