<svg width="144" height="100" viewBox="0 0 144 100" fill="none" xmlns="http://www.w3.org/2000/svg">
<g clip-path="url(#clip0_10_374)">
<path d="M32.791 54.5682V42.6783H35.169L40.0501 50.6884V42.6783H42.3029V54.5682H39.9249L35.0438 46.8085V54.5682H32.791Z" fill="#81489C"/>
<path d="M1.00125 59.6996L0 60.4506V35.6696L1.00125 36.2954V59.6996Z" fill="black"/>
<path d="M5.38174 56.9462H4.38049V39.174H5.38174V56.9462Z" fill="black"/>
<path d="M23.2791 66.9587L23.6546 68.0851L0 60.4506L1.00125 59.6996L23.2791 66.9587Z" fill="black"/>
<path d="M31.0388 56.1953L31.7897 56.821L23.5294 68.2103L23.1539 67.0839L31.0388 56.1953Z" fill="black"/>
<path d="M23.2791 29.1614L23.6546 28.035L32.1652 39.6746L31.2891 40.1752L23.2791 29.1614Z" fill="black"/>
<path d="M1.00125 36.2954L0 35.6696L23.6546 28.035L23.2791 29.1614L1.00125 36.2954Z" fill="black"/>
<path d="M25.1564 6.25782C25.1564 5.00626 25.2816 4.00501 25.6571 3.25407C25.9074 2.62829 26.2828 2.12766 26.7835 1.62703C27.2841 1.12641 27.7847 0.750939 28.2853 0.500626C29.0363 0.125156 29.9124 0 30.9136 0C32.6658 0 34.0425 0.500626 35.1689 1.62703C36.2954 2.75344 36.796 4.25532 36.796 6.13267C36.796 8.01001 36.2954 9.51189 35.1689 10.6383C34.1677 11.7647 32.6658 12.2653 30.9136 12.2653C29.1614 12.2653 27.7847 11.7647 26.6583 10.6383C25.6571 9.63705 25.1564 8.13517 25.1564 6.25782ZM27.6596 6.13267C27.6596 7.50939 27.9099 8.51064 28.5357 9.26158C29.1614 10.0125 29.9124 10.2628 30.9136 10.2628C31.9149 10.2628 32.6658 9.88736 33.2916 9.26158C33.9174 8.63579 34.1677 7.50939 34.1677 6.13267C34.1677 4.75594 33.9174 3.75469 33.2916 3.12891C32.6658 2.50313 31.9149 2.12766 30.9136 2.12766C29.9124 2.12766 29.1614 2.50313 28.5357 3.12891C27.9099 3.75469 27.6596 4.75594 27.6596 6.13267Z" fill="#81489C"/>
<path d="M25.5319 13.3918L26.5332 13.6421L21.4018 29.4118L20.4005 29.1615L25.5319 13.3918Z" fill="black"/>
<path d="M29.6621 14.7685L30.6633 15.0188L25.5319 30.7885L24.5306 30.5382L29.6621 14.7685Z" fill="black"/>
<path d="M25.1564 91.1139C25.1564 89.8623 25.2816 88.8611 25.6571 88.1101C25.9074 87.4844 26.2828 86.9837 26.7835 86.4831C27.2841 85.9825 27.7847 85.607 28.2853 85.3567C29.0363 84.9812 29.9124 84.8561 30.9136 84.8561C32.6658 84.8561 34.0425 85.3567 35.1689 86.4831C36.2954 87.6095 36.796 89.1114 36.796 90.9887C36.796 92.8661 36.2954 94.368 35.1689 95.4944C34.1677 96.6208 32.6658 97.1214 30.9136 97.1214C29.1614 97.1214 27.7847 96.6208 26.6583 95.4944C25.6571 94.4931 25.1564 92.9912 25.1564 91.1139ZM27.6596 91.1139C27.6596 92.4906 27.9099 93.4919 28.5357 94.2428C29.1614 94.9938 29.9124 95.2441 30.9136 95.2441C31.9149 95.2441 32.6658 94.8686 33.2916 94.2428C33.9174 93.617 34.1677 92.4906 34.1677 91.1139C34.1677 89.7372 33.9174 88.7359 33.2916 88.1101C32.6658 87.4844 31.9149 87.1089 30.9136 87.1089C29.9124 87.1089 29.1614 87.4844 28.5357 88.1101C27.9099 88.6108 27.6596 89.7372 27.6596 91.1139Z" fill="#81489C"/>
<path d="M30.7885 81.4768L29.7872 81.7272L24.5306 65.582L25.5319 65.3317L30.7885 81.4768Z" fill="black"/>
<path d="M26.6583 82.7284L25.6571 82.9787L20.4005 66.8335L21.4018 66.5832L26.6583 82.7284Z" fill="black"/>
<path d="M61.9524 47.5594L61.3266 48.5607H44.9312V47.5594H61.9524Z" fill="black"/>
<path d="M74.0926 68.4606L73.4668 69.4618L61.4518 48.5607L62.0776 47.5594L74.0926 68.4606Z" fill="black"/>
<path d="M98.1227 68.4606L97.6221 69.4618H73.4669L74.0926 68.4606H98.1227Z" fill="black"/>
<path d="M105.131 96.3705V84.4806H107.509L112.39 92.4906V84.4806H114.643V96.3705H112.265L107.509 88.6108V96.3705H105.131Z" fill="#81489C"/>
<path d="M117.146 96.3705V84.4806H119.524V89.2365H124.28V84.4806H126.658V96.3705H124.28V91.1139H119.524V96.3705H117.146Z" fill="#81489C"/>
<path d="M134.418 98.373V100H128.411C128.536 99.3742 128.661 98.8736 129.036 98.2478C129.412 97.7472 130.038 96.9963 130.914 96.1202C131.665 95.3692 132.165 94.8686 132.29 94.6183C132.541 94.2428 132.666 93.8674 132.666 93.617C132.666 93.2416 132.541 92.9913 132.416 92.7409C132.165 92.4906 131.915 92.4906 131.539 92.4906C131.164 92.4906 130.914 92.6158 130.663 92.8661C130.413 93.1164 130.288 93.4919 130.288 93.9925L128.536 93.8674C128.661 92.8661 128.911 92.2403 129.537 91.8649C130.163 91.4894 130.788 91.2391 131.539 91.2391C132.416 91.2391 133.166 91.4894 133.667 91.99C134.168 92.4906 134.418 93.1164 134.418 93.7422C134.418 94.1177 134.293 94.4931 134.168 94.8686C134.043 95.2441 133.792 95.6195 133.542 95.995C133.292 96.2453 132.916 96.6208 132.416 97.1214C131.915 97.622 131.539 97.9975 131.414 98.1227C131.289 98.2478 131.164 98.4981 131.039 98.6233H134.418V98.373Z" fill="#81489C"/>
<path d="M105.382 80.8511L104.506 81.3517L97.622 69.4618L98.2478 68.4606L105.382 80.8511Z" fill="black"/>
<path d="M115.895 64.4556V54.5682H112.391V52.5657H121.902V54.5682H118.398V64.4556H115.895Z" fill="#81489C"/>
<path d="M123.404 64.4556V52.5657H131.539V54.5682H125.782V57.4468H130.788V59.4493H125.782V64.5807H123.404V64.4556Z" fill="#81489C"/>
<path d="M143.429 64.4556H140.801L139.8 61.7021H135.044L134.043 64.4556H131.539L136.17 52.5657H138.673L143.429 64.4556ZM139.049 59.6996L137.422 55.3191L135.795 59.6996H139.049Z" fill="#81489C"/>
</g>
<defs>
<clipPath id="clip0_10_374">
<rect width="143.429" height="100" fill="white"/>
</clipPath>
</defs>
</svg>
