<svg width="128px" height="74px" viewBox="0 0 128 74" style="background-color: #ffffff00" xmlns="http://www.w3.org/2000/svg" xmlns:xlink="http://www.w3.org/1999/xlink" version="1.1" >
<text x="0" y="0" stroke="none" fill="#000000" transform="matrix(0.0666667 0 0 0.0666667 15.619 47.2734)" font-style="normal" font-weight="bold" font-size="200px" font-family="Arial" >
N</text>
<path stroke="none" fill="#000000" transform="matrix(0.0666667 0 0 0.0666667 -285.967 -318)" d="M 4352.59,5253.14 L 4340.59,5260.06 L 4340.59,4965.14 L 4352.59,4972.07 L 4352.59,5253.14 Z " />
<path stroke="none" fill="#000000" transform="matrix(0.0666667 0 0 0.0666667 -285.967 -318)" d="M 4404.43,5226.67 L 4392.43,5226.67 L 4392.43,4998.53 L 4404.43,4998.53 L 4404.43,5226.67 Z " />
<path stroke="none" fill="#000000" transform="matrix(0.0666667 0 0 0.0666667 -285.967 -318)" d="M 4498.79,5337.55 L 4492.79,5347.94 L 4340.59,5260.06 L 4352.59,5253.14 L 4498.79,5337.55 Z " />
<path stroke="none" fill="#000000" transform="matrix(0.0666667 0 0 0.0666667 -285.967 -318)" d="M 4839.42,5253.14 L 4845.42,5256.6 L 4845.42,5263.53 L 4698.14,5348.56 L 4692.14,5338.17 L 4839.42,5253.14 Z " />
<path stroke="none" fill="#000000" transform="matrix(0.0666667 0 0 0.0666667 -285.967 -318)" d="M 4790.58,5221.47 L 4796.58,5231.87 L 4672.22,5303.66 L 4666.22,5293.27 L 4790.58,5221.47 Z " />
<path stroke="none" fill="#000000" transform="matrix(0.0666667 0 0 0.0666667 -285.967 -318)" d="M 4839.42,4972.07 L 4851.42,4965.14 L 4851.42,5253.14 L 4845.42,5256.6 L 4839.42,5253.14 L 4839.42,4972.07 Z " />
<path stroke="none" fill="#000000" transform="matrix(0.0666667 0 0 0.0666667 -285.967 -318)" d="M 4596,4831.53 L 4596,4817.67 L 4851.42,4965.14 L 4839.42,4972.07 L 4596,4831.53 Z " />
<path stroke="none" fill="#000000" transform="matrix(0.0666667 0 0 0.0666667 -285.967 -318)" d="M 4593,4889.66 L 4599,4879.26 L 4796.58,4993.33 L 4790.58,5003.73 L 4593,4889.66 Z " />
<path stroke="none" fill="#000000" transform="matrix(0.0666667 0 0 0.0666667 -285.967 -318)" d="M 4352.59,4972.07 L 4340.59,4965.14 L 4596,4817.67 L 4596,4831.53 L 4352.59,4972.07 Z " />
<path stroke="none" fill="#000000" transform="matrix(0.0666667 0 0 0.0666667 -285.967 -318)" d="M 5094.83,5393.67 L 5094.83,5400.6 L 5088.83,5404.06 L 4845.42,5263.53 L 4845.42,5256.6 L 4851.42,5253.14 L 5094.83,5393.67 Z " />
<path stroke="none" fill="#000000" transform="matrix(0.0666667 0 0 0.0666667 -285.967 -318)" d="M 5100.83,5685.14 L 5088.83,5692.06 L 5088.83,5404.06 L 5094.83,5400.6 L 5100.83,5404.06 L 5100.83,5685.14 Z " />
<path stroke="none" fill="#000000" transform="matrix(0.0666667 0 0 0.0666667 -285.967 -318)" d="M 5152.67,5658.67 L 5140.67,5658.67 L 5140.67,5430.53 L 5152.67,5430.53 L 5152.67,5658.67 Z " />
<path stroke="none" fill="#000000" transform="matrix(0.0666667 0 0 0.0666667 -285.967 -318)" d="M 5344.25,5825.67 L 5344.25,5839.53 L 5088.83,5692.06 L 5100.83,5685.14 L 5344.25,5825.67 Z " />
<path stroke="none" fill="#000000" transform="matrix(0.0666667 0 0 0.0666667 -285.967 -318)" d="M 5587.66,5685.14 L 5593.66,5688.6 L 5593.66,5695.53 L 5344.25,5839.53 L 5344.25,5825.67 L 5587.66,5685.14 Z " />
<path stroke="none" fill="#000000" transform="matrix(0.0666667 0 0 0.0666667 -285.967 -318)" d="M 5538.82,5653.47 L 5544.82,5663.87 L 5347.25,5777.94 L 5341.25,5767.54 L 5538.82,5653.47 Z " />
<path stroke="none" fill="#000000" transform="matrix(0.0666667 0 0 0.0666667 -285.967 -318)" d="M 5587.66,5404.06 L 5599.66,5397.14 L 5599.66,5685.14 L 5593.66,5688.6 L 5587.66,5685.14 L 5587.66,5404.06 Z " />
<path stroke="none" fill="#000000" transform="matrix(0.0666667 0 0 0.0666667 -285.967 -318)" d="M 5344.25,5263.53 L 5344.25,5249.67 L 5599.66,5397.14 L 5587.66,5404.06 L 5344.25,5263.53 Z " />
<path stroke="none" fill="#000000" transform="matrix(0.0666667 0 0 0.0666667 -285.967 -318)" d="M 5341.25,5321.66 L 5347.25,5311.26 L 5544.82,5425.33 L 5538.82,5435.73 L 5341.25,5321.66 Z " />
<path stroke="none" fill="#000000" transform="matrix(0.0666667 0 0 0.0666667 -285.967 -318)" d="M 5100.83,5404.06 L 5094.83,5400.6 L 5094.83,5393.67 L 5344.25,5249.67 L 5344.25,5263.53 L 5100.83,5404.06 Z " />
<path stroke="none" fill="#000000" transform="matrix(0.0666667 0 0 0.0666667 -285.967 -318)" d="M 5843.08,5825.67 L 5843.08,5839.53 L 5593.66,5695.53 L 5593.66,5688.6 L 5599.66,5685.14 L 5843.08,5825.67 Z " />
<text x="0" y="0" stroke="none" fill="#000000" transform="matrix(0.0666667 0 0 0.0666667 114.15 64.9769)" font-style="normal" font-weight="bold" font-size="200px" font-family="Arial" >
O</text>
<path stroke="none" fill="#000000" transform="matrix(0.0666667 0 0 0.0666667 -285.967 -318)" d="M 5997.75,5736.37 L 6003.74,5746.77 L 5843.08,5839.53 L 5843.08,5825.67 L 5997.75,5736.37 Z " />
<path stroke="none" fill="#000000" transform="matrix(0.0666667 0 0 0.0666667 -285.967 -318)" d="M 5971.83,5691.48 L 5977.82,5701.87 L 5846.08,5777.94 L 5840.08,5767.54 L 5971.83,5691.48 Z " />
</svg>