<svg width="145" height="66" viewBox="0 0 145 66" fill="none" xmlns="http://www.w3.org/2000/svg">
<g clip-path="url(#clip0_13_715)">
<path d="M93.686 66V52.9102H96.2998L101.665 61.7286V52.9102H104.141V66H101.528L96.2998 57.4572V66H93.686Z" fill="#81489C"/>
<path d="M76.6271 45.3319L75.5266 46.0209V19.428L76.0768 19.1524L76.6271 19.428V45.3319Z" fill="black"/>
<path d="M81.3045 42.8518H80.204V21.9081H81.3045V42.8518Z" fill="black"/>
<path d="M89.9715 53.048L89.4212 54.0125L75.5266 45.8831L76.6271 45.1942L89.9715 53.048Z" fill="black"/>
<path d="M121.2 45.3319L121.75 45.6075V46.2964L108.269 54.1503L107.718 53.1858L121.2 45.3319Z" fill="black"/>
<path d="M116.798 42.4384L117.348 43.4029L105.93 49.8789L105.38 48.9144L116.798 42.4384Z" fill="black"/>
<path d="M121.2 19.428L122.301 18.739V45.1942L121.75 45.4697L121.2 45.1942V19.428Z" fill="black"/>
<path d="M98.9137 6.61377V5.2359L122.301 18.739L121.2 19.428L98.9137 6.61377Z" fill="black"/>
<path d="M98.6385 11.8497L99.1888 11.0229L117.348 21.4948L116.798 22.4593L98.6385 11.8497Z" fill="black"/>
<path d="M76.6271 19.428L76.0768 19.1524V18.4635L98.9137 5.2359V6.47598L76.6271 19.428Z" fill="black"/>
<path d="M145 58.4217L144.45 59.3862L121.888 46.2964V45.6075L122.438 45.3319L145 58.4217Z" fill="black"/>
<path d="M0 0H5.2277C6.32827 0 7.01613 0 7.56641 0.137787C8.1167 0.275574 8.52941 0.413361 8.94213 0.688935C9.35484 0.964509 9.62998 1.37787 9.90512 1.79123C10.1803 2.20459 10.3178 2.75574 10.3178 3.30689C10.3178 3.85804 10.1803 4.54697 9.76755 4.96033C9.49241 5.51148 9.0797 5.92484 8.52941 6.20042C9.35484 6.47599 9.90512 6.88935 10.3178 7.4405C10.7305 7.85386 11.0057 8.5428 11.0057 9.36952C11.0057 9.92067 10.8681 10.4718 10.593 11.023C10.3178 11.7119 9.90512 12.1253 9.49241 12.4008C8.94213 12.8142 8.39184 12.952 7.70398 13.0898C7.29127 13.0898 6.1907 13.2276 4.53985 13.2276H0V0ZM2.61385 2.20459V5.23591H4.40228C5.50285 5.23591 6.05313 5.23591 6.32827 5.23591C6.74099 5.23591 7.1537 4.96033 7.42884 4.82255C7.70398 4.40919 7.84156 4.13361 7.84156 3.72025C7.84156 3.30689 7.70398 3.03132 7.56641 2.75574C7.1537 2.48017 6.87856 2.34238 6.46584 2.20459C6.1907 2.20459 5.50285 2.20459 4.26471 2.20459H2.61385ZM2.61385 7.4405V11.023H5.09013C6.05313 11.023 6.60342 11.023 6.87856 10.8852C7.29127 10.7474 7.56641 10.6096 7.84156 10.334C8.1167 10.0585 8.25427 9.64509 8.25427 9.23173C8.25427 8.81837 8.1167 8.5428 7.97913 8.26722C7.84156 7.99165 7.56641 7.71607 7.1537 7.57829C6.74099 7.4405 6.05313 7.4405 4.81499 7.4405H2.61385Z" fill="#81489C"/>
<path d="M12.6566 8.26722C12.6566 7.4405 12.7941 6.61377 13.2068 5.78705C13.6196 4.96033 14.1698 4.40918 14.9953 3.99582C15.6831 3.58246 16.6461 3.44467 17.4715 3.44467C18.8473 3.44467 20.0854 3.85803 21.0484 4.82254C22.0114 5.78705 22.4241 6.88935 22.4241 8.40501C22.4241 9.78288 22.0114 11.023 21.0484 11.9875C20.0854 12.952 18.9848 13.3653 17.6091 13.3653C16.7837 13.3653 15.9583 13.2276 15.1328 12.8142C14.3074 12.4008 13.6196 11.8497 13.2068 11.023C12.7941 10.334 12.6566 9.36951 12.6566 8.26722ZM15.2704 8.40501C15.2704 9.36951 15.5456 10.0585 15.9583 10.6096C16.371 11.1607 16.9213 11.2985 17.6091 11.2985C18.297 11.2985 18.7097 11.023 19.26 10.6096C19.6727 10.0585 19.9478 9.36951 19.9478 8.40501C19.9478 7.4405 19.6727 6.75156 19.26 6.20041C18.7097 5.64926 18.1594 5.51148 17.6091 5.51148C17.0588 5.51148 16.371 5.78705 15.9583 6.20041C15.408 6.75156 15.2704 7.4405 15.2704 8.40501Z" fill="#81489C"/>
<path d="M32.7419 6.47599L30.2657 6.88935C30.1281 6.3382 29.9905 6.06263 29.7154 5.78705C29.4402 5.51148 29.0275 5.37369 28.6148 5.37369C27.9269 5.37369 27.5142 5.64926 27.1015 6.06263C26.6888 6.47599 26.5512 7.16492 26.5512 8.26722C26.5512 9.36951 26.6888 10.1962 27.1015 10.6096C27.5142 11.023 27.9269 11.2985 28.6148 11.2985C29.0275 11.2985 29.4402 11.1607 29.8529 10.8852C30.1281 10.6096 30.4032 10.1962 30.5408 9.5073L33.0171 9.92066C32.7419 11.023 32.3292 11.8497 31.5038 12.5386C30.8159 13.0898 29.8529 13.3653 28.6148 13.3653C27.2391 13.3653 26.1385 12.952 25.3131 11.9875C24.4877 11.023 24.075 9.92066 24.075 8.40501C24.075 6.88935 24.4877 5.64926 25.3131 4.68476C26.1385 3.85803 27.2391 3.30688 28.6148 3.30688C29.7154 3.30688 30.6784 3.58246 31.3662 3.99582C31.9165 4.68476 32.4668 5.37369 32.7419 6.47599Z" fill="#81489C"/>
<path d="M34.6679 13.0898V0H37.2818V5.23591H42.5095V0H45.1233V13.0898H42.5095V7.4405H37.2818V13.2276H34.6679V13.0898Z" fill="#81489C"/>
<path d="M47.8748 13.0898V0H50.4886L55.8539 8.81837V0H58.3302V13.0898H55.7163L50.4886 4.54697V13.0898H47.8748Z" fill="#81489C"/>
<path d="M62.1822 11.8497L62.7324 10.8852L76.0768 18.6012V19.2902L75.5266 19.5657L62.1822 11.8497Z" fill="black"/>
</g>
<defs>
<clipPath id="clip0_13_715">
<rect width="145" height="66" fill="white"/>
</clipPath>
</defs>
</svg>
