<svg width="69px" height="113px" viewBox="0 0 69 113" style="background-color: #ffffff00" xmlns="http://www.w3.org/2000/svg" xmlns:xlink="http://www.w3.org/1999/xlink" version="1.1" >
<path stroke="none" fill="#000000" transform="matrix(0.0666667 0 0 0.0666667 -326.967 -259)" d="M 5025.45,5023.04 L 5013.45,5029.97 L 5013.45,4736.04 L 5025.45,4742.97 L 5025.45,5023.04 Z " />
<path stroke="none" fill="#000000" transform="matrix(0.0666667 0 0 0.0666667 -326.967 -259)" d="M 5077.11,4996.68 L 5065.11,4996.68 L 5065.11,4769.33 L 5077.11,4769.33 L 5077.11,4996.68 Z " />
<path stroke="none" fill="#000000" transform="matrix(0.0666667 0 0 0.0666667 -326.967 -259)" d="M 5268,5163.07 L 5268,5170 L 5262,5173.47 L 5013.45,5029.97 L 5025.45,5023.04 L 5268,5163.07 Z " />
<path stroke="none" fill="#000000" transform="matrix(0.0666667 0 0 0.0666667 -326.967 -259)" d="M 5510.55,5023.04 L 5522.55,5029.97 L 5274,5173.47 L 5268,5170 L 5268,5163.07 L 5510.55,5023.04 Z " />
<path stroke="none" fill="#000000" transform="matrix(0.0666667 0 0 0.0666667 -326.967 -259)" d="M 5461.89,4991.48 L 5467.89,5001.87 L 5271,5115.55 L 5265,5105.15 L 5461.89,4991.48 Z " />
<path stroke="none" fill="#000000" transform="matrix(0.0666667 0 0 0.0666667 -326.967 -259)" d="M 5510.55,4742.97 L 5516.55,4739.5 L 5522.55,4742.97 L 5522.55,5029.97 L 5510.55,5023.04 L 5510.55,4742.97 Z " />
<path stroke="none" fill="#000000" transform="matrix(0.0666667 0 0 0.0666667 -326.967 -259)" d="M 5268,4602.93 L 5268,4596 L 5274,4592.54 L 5516.55,4732.57 L 5516.55,4739.5 L 5510.55,4742.97 L 5268,4602.93 Z " />
<path stroke="none" fill="#000000" transform="matrix(0.0666667 0 0 0.0666667 -326.967 -259)" d="M 5265,4660.85 L 5271,4650.46 L 5467.89,4764.13 L 5461.89,4774.52 L 5265,4660.85 Z " />
<path stroke="none" fill="#000000" transform="matrix(0.0666667 0 0 0.0666667 -326.967 -259)" d="M 5025.45,4742.97 L 5013.45,4736.04 L 5262,4592.54 L 5268,4596 L 5268,4602.93 L 5025.45,4742.97 Z " />
<path stroke="none" fill="#000000" transform="matrix(0.0666667 0 0 0.0666667 -326.967 -259)" d="M 5262,4312.47 L 5268,4309 L 5274,4312.47 L 5274,4592.54 L 5268,4596 L 5262,4592.54 L 5262,4312.47 Z " />
<text x="0" y="0" stroke="none" fill="#000000" transform="matrix(0.0666667 0 0 0.0666667 52.5588 52.6334)" font-style="normal" font-weight="bold" font-size="200px" font-family="Arial" >
Cl</text>
<path stroke="none" fill="#000000" transform="matrix(0.0666667 0 0 0.0666667 -326.967 -259)" d="M 5674.84,4641.18 L 5680.84,4651.57 L 5522.55,4742.97 L 5516.55,4739.5 L 5516.55,4732.57 L 5674.84,4641.18 Z " />
<text x="0" y="0" stroke="none" fill="#000000" transform="matrix(0.0666667 0 0 0.0666667 19.4189 110.033)" font-style="normal" font-weight="bold" font-size="200px" font-family="Arial" >
Br</text>
<path stroke="none" fill="#000000" transform="matrix(0.0666667 0 0 0.0666667 -326.967 -259)" d="M 5274,5356.67 L 5262,5356.67 L 5262,5173.47 L 5268,5170 L 5274,5173.47 L 5274,5356.67 Z " />
<text x="0" y="0" stroke="none" fill="#000000" transform="matrix(0.0666667 0 0 0.0666667 35.6178 23.9334)" font-style="normal" font-weight="bold" font-size="200px" font-family="Arial" >
OH</text>
<path stroke="none" fill="#000000" transform="matrix(0.0666667 0 0 0.0666667 -326.967 -259)" d="M 5421.8,4213.28 L 5427.8,4223.67 L 5274,4312.47 L 5268,4309 L 5274,4298.61 L 5421.8,4213.28 Z " />
<text x="0" y="0" stroke="none" fill="#000000" transform="matrix(0.0666667 0 0 0.0666667 2.84897 23.9334)" font-style="normal" font-weight="bold" font-size="200px" font-family="Arial" >
D</text>
<path stroke="none" fill="#000000" transform="matrix(0.0666667 0 0 0.0666667 -326.967 -259)" d="M 5103.76,4221.1 L 5109.76,4210.71 L 5262,4298.61 L 5268,4309 L 5262,4312.47 L 5103.76,4221.1 Z " />
<text x="0" y="0" stroke="none" fill="#000000" transform="matrix(0.0666667 0 0 0.0666667 19.4189 14.3667)" font-style="normal" font-weight="bold" font-size="200px" font-family="Arial" >
D</text>
<path stroke="none" fill="#000000" transform="matrix(0.0666667 0 0 0.0666667 -326.967 -259)" d="M 5262,4127.67 L 5274,4127.67 L 5274,4298.61 L 5268,4309 L 5262,4298.61 L 5262,4127.67 Z " />
</svg>
