<svg width="217px" height="149px" viewBox="0 0 217 149" style="background-color: #ffffff00" xmlns="http://www.w3.org/2000/svg" xmlns:xlink="http://www.w3.org/1999/xlink" version="1.1" >
<text x="0" y="0" stroke="none" fill="#000000" transform="matrix(0.0666667 0 0 0.0666667 145.281 74.8833)" font-style="normal" font-weight="bold" font-size="200px" font-family="Arial" >
N</text>
<text x="0" y="0" stroke="none" fill="#000000" transform="matrix(0.0666667 0 0 0.0666667 194.991 84.45)" font-style="normal" font-weight="bold" font-size="200px" font-family="Arial" >
CN</text>
<text x="0" y="0" stroke="none" fill="#000000" transform="matrix(0.0666667 0 0 0.0666667 79.0009 55.75)" font-style="normal" font-weight="bold" font-size="200px" font-family="Arial" >
COOH</text>
<text x="0" y="0" stroke="none" fill="#000000" transform="matrix(0.0666667 0 0 0.0666667 3.0922 74.8833)" font-style="normal" font-weight="bold" font-size="200px" font-family="Arial" >
NC</text>
<text x="0" y="0" stroke="none" fill="#000000" transform="matrix(0.0666667 0 0 0.0666667 62.431 84.45)" font-style="normal" font-weight="bold" font-size="200px" font-family="Arial" >
N</text>
<text x="0" y="0" stroke="none" fill="#000000" transform="matrix(0.0666667 0 0 0.0666667 45.4899 113.15)" font-style="normal" font-weight="bold" font-size="200px" font-family="Arial" >
O</text>
<text x="0" y="0" stroke="none" fill="#000000" transform="matrix(0.0666667 0 0 0.0666667 78.6298 113.15)" font-style="normal" font-weight="bold" font-size="200px" font-family="Arial" >
O</text>
<text x="0" y="0" stroke="none" fill="#000000" transform="matrix(0.0666667 0 0 0.0666667 161.48 46.1833)" font-style="normal" font-weight="bold" font-size="200px" font-family="Arial" >
O</text>
<text x="0" y="0" stroke="none" fill="#000000" transform="matrix(0.0666667 0 0 0.0666667 128.34 46.1833)" font-style="normal" font-weight="bold" font-size="200px" font-family="Arial" >
O</text>
<path stroke="none" fill="#000000" transform="matrix(0.0666667 0 0 0.0666667 -286.967 -420)" d="M 6058.83,7351.68 L 6058.83,7337.82 L 6307.38,7481.32 L 6307.38,7495.18 L 6058.83,7351.68 Z " />
<path stroke="none" fill="#000000" transform="matrix(0.0666667 0 0 0.0666667 -286.967 -420)" d="M 6307.38,7495.18 L 6307.38,7481.32 L 6450.4,7398.75 L 6456.4,7409.14 L 6307.38,7495.18 Z " />
<path stroke="none" fill="#000000" transform="matrix(0.0666667 0 0 0.0666667 -286.967 -420)" d="M 6654.38,7408.52 L 6660.38,7398.13 L 6804.48,7481.32 L 6804.48,7495.18 L 6654.38,7408.52 Z " />
<path stroke="none" fill="#000000" transform="matrix(0.0666667 0 0 0.0666667 -286.967 -420)" d="M 6804.48,7495.18 L 6804.48,7481.32 L 7053.03,7337.82 L 7053.03,7351.68 L 6804.48,7495.18 Z " />
<path stroke="none" fill="#000000" transform="matrix(0.0666667 0 0 0.0666667 -286.967 -420)" d="M 7053.03,7351.68 L 7053.03,7337.82 L 7220.32,7434.41 L 7214.32,7444.8 L 7053.03,7351.68 Z " />
<path stroke="none" fill="#000000" transform="matrix(0.0666667 0 0 0.0666667 -286.967 -420)" d="M 5555.73,7166.08 L 5567.73,7166.08 L 5567.73,7341.29 L 5561.73,7344.75 L 5555.73,7341.29 L 5555.73,7166.08 Z " />
<path stroke="none" fill="#000000" transform="matrix(0.0666667 0 0 0.0666667 -286.967 -420)" d="M 4654.49,7401.88 L 4660.49,7391.49 L 4816.08,7481.32 L 4816.08,7495.18 L 4654.49,7401.88 Z " />
<path stroke="none" fill="#000000" transform="matrix(0.0666667 0 0 0.0666667 -286.967 -420)" d="M 4816.08,7495.18 L 4816.08,7481.32 L 5064.63,7337.82 L 5064.63,7351.68 L 4816.08,7495.18 Z " />
<path stroke="none" fill="#000000" transform="matrix(0.0666667 0 0 0.0666667 -286.967 -420)" d="M 5064.63,7351.68 L 5064.63,7337.82 L 5215.97,7425.19 L 5209.97,7435.59 L 5064.63,7351.68 Z " />
<path stroke="none" fill="#000000" transform="matrix(0.0666667 0 0 0.0666667 -286.967 -420)" d="M 5415.32,7436.21 L 5409.32,7425.82 L 5555.73,7341.29 L 5561.73,7344.75 L 5561.73,7351.68 L 5415.32,7436.21 Z " />
<path stroke="none" fill="#000000" transform="matrix(0.0666667 0 0 0.0666667 -286.967 -420)" d="M 5561.73,7351.68 L 5561.73,7344.75 L 5567.73,7341.29 L 5810.28,7481.32 L 5810.28,7495.18 L 5561.73,7351.68 Z " />
<path stroke="none" fill="#000000" transform="matrix(0.0666667 0 0 0.0666667 -286.967 -420)" d="M 5810.28,7495.18 L 5810.28,7481.32 L 6058.83,7337.82 L 6058.83,7351.68 L 5810.28,7495.18 Z " />
<path stroke="none" fill="#000000" transform="matrix(0.0666667 0 0 0.0666667 -286.967 -420)" d="M 5319.18,7771.79 L 5307.18,7778.71 L 5307.18,7593.92 L 5319.18,7593.92 L 5319.18,7771.79 Z " />
<path stroke="none" fill="#000000" transform="matrix(0.0666667 0 0 0.0666667 -286.967 -420)" d="M 5170.05,7894.64 L 5164.05,7884.25 L 5336.01,7784.97 L 5342.01,7795.36 L 5170.05,7894.64 Z " />
<path stroke="none" fill="#000000" transform="matrix(0.0666667 0 0 0.0666667 -286.967 -420)" d="M 5144.22,7849.9 L 5138.22,7839.51 L 5310.18,7740.23 L 5316.18,7750.62 L 5144.22,7849.9 Z " />
<path stroke="none" fill="#000000" transform="matrix(0.0666667 0 0 0.0666667 -286.967 -420)" d="M 5475.75,7862.18 L 5469.75,7872.58 L 5307.18,7778.71 L 5319.18,7771.79 L 5475.75,7862.18 Z " />
<path stroke="none" fill="#000000" transform="matrix(0.0666667 0 0 0.0666667 -286.967 -420)" d="M 5567.73,8202.29 L 5561.73,8205.75 L 5555.73,8202.29 L 5555.73,8027.08 L 5567.73,8027.08 L 5567.73,8202.29 Z " />
<path stroke="none" fill="#000000" transform="matrix(0.0666667 0 0 0.0666667 -286.967 -420)" d="M 5316.18,8354.45 L 5310.18,8344.05 L 5555.73,8202.29 L 5561.73,8205.75 L 5555.73,8216.14 L 5316.18,8354.45 Z " />
<path stroke="none" fill="#000000" transform="matrix(0.0666667 0 0 0.0666667 -286.967 -420)" d="M 5567.73,8492.75 L 5555.73,8492.75 L 5555.73,8216.14 L 5561.73,8205.75 L 5567.73,8216.14 L 5567.73,8492.75 Z " />
<path stroke="none" fill="#000000" transform="matrix(0.0666667 0 0 0.0666667 -286.967 -420)" d="M 5813.28,8344.05 L 5807.28,8354.45 L 5567.73,8216.14 L 5561.73,8205.75 L 5567.73,8202.29 L 5813.28,8344.05 Z " />
<path stroke="none" fill="#000000" transform="matrix(0.0666667 0 0 0.0666667 -286.967 -420)" d="M 6549.93,7054.29 L 6561.93,7061.21 L 6561.93,7244.42 L 6549.93,7244.42 L 6549.93,7054.29 Z " />
<path stroke="none" fill="#000000" transform="matrix(0.0666667 0 0 0.0666667 -286.967 -420)" d="M 6709.73,6962.02 L 6715.73,6972.42 L 6561.93,7061.21 L 6549.93,7054.29 L 6709.73,6962.02 Z " />
<path stroke="none" fill="#000000" transform="matrix(0.0666667 0 0 0.0666667 -286.967 -420)" d="M 6383.65,6995.04 L 6389.65,6984.65 L 6558.93,7082.38 L 6552.93,7092.77 L 6383.65,6995.04 Z " />
<path stroke="none" fill="#000000" transform="matrix(0.0666667 0 0 0.0666667 -286.967 -420)" d="M 6409.48,6950.3 L 6415.48,6939.91 L 6584.76,7037.64 L 6578.76,7048.03 L 6409.48,6950.3 Z " />
<path stroke="none" fill="#000000" transform="matrix(0.0666667 0 0 0.0666667 -286.967 -420)" d="M 6798.48,6630.71 L 6804.48,6627.25 L 6810.48,6630.71 L 6810.48,6811.58 L 6798.48,6811.58 L 6798.48,6630.71 Z " />
<path stroke="none" fill="#000000" transform="matrix(0.0666667 0 0 0.0666667 -286.967 -420)" d="M 7050.03,6478.55 L 7056.03,6488.95 L 6810.48,6630.71 L 6804.48,6627.25 L 6810.48,6616.86 L 7050.03,6478.55 Z " />
<path stroke="none" fill="#000000" transform="matrix(0.0666667 0 0 0.0666667 -286.967 -420)" d="M 6552.93,6488.95 L 6558.93,6478.55 L 6798.48,6616.86 L 6804.48,6627.25 L 6798.48,6630.71 L 6552.93,6488.95 Z " />
<path stroke="none" fill="#000000" transform="matrix(0.0666667 0 0 0.0666667 -286.967 -420)" d="M 6798.48,6340.25 L 6810.48,6340.25 L 6810.48,6616.86 L 6804.48,6627.25 L 6798.48,6616.86 L 6798.48,6340.25 Z " />
</svg>