<svg width="111px" height="50px" viewBox="0 0 111 50" style="background-color: #ffffff00" xmlns="http://www.w3.org/2000/svg" xmlns:xlink="http://www.w3.org/1999/xlink" version="1.1" >
<path stroke="none" fill="#000000" transform="matrix(0.0666667 0 0 0.0666667 -235.967 -321)" d="M 3599.59,5294.54 L 3587.59,5301.46 L 3587.59,5006.54 L 3599.59,5013.46 L 3599.59,5294.54 Z " />
<path stroke="none" fill="#000000" transform="matrix(0.0666667 0 0 0.0666667 -235.967 -321)" d="M 3651.43,5268.07 L 3639.43,5268.07 L 3639.43,5039.93 L 3651.43,5039.93 L 3651.43,5268.07 Z " />
<path stroke="none" fill="#000000" transform="matrix(0.0666667 0 0 0.0666667 -235.967 -321)" d="M 3843,5435.07 L 3843,5448.93 L 3587.59,5301.46 L 3599.59,5294.54 L 3843,5435.07 Z " />
<path stroke="none" fill="#000000" transform="matrix(0.0666667 0 0 0.0666667 -235.967 -321)" d="M 4086.42,5294.54 L 4092.42,5298 L 4092.42,5304.93 L 3843,5448.93 L 3843,5435.07 L 4086.42,5294.54 Z " />
<path stroke="none" fill="#000000" transform="matrix(0.0666667 0 0 0.0666667 -235.967 -321)" d="M 4037.58,5262.87 L 4043.58,5273.27 L 3846,5387.34 L 3840,5376.94 L 4037.58,5262.87 Z " />
<path stroke="none" fill="#000000" transform="matrix(0.0666667 0 0 0.0666667 -235.967 -321)" d="M 4086.42,5013.46 L 4092.42,5010 L 4098.42,5013.46 L 4098.42,5294.54 L 4092.42,5298 L 4086.42,5294.54 L 4086.42,5013.46 Z " />
<path stroke="none" fill="#000000" transform="matrix(0.0666667 0 0 0.0666667 -235.967 -321)" d="M 3843,4872.93 L 3843,4859.07 L 4092.42,5003.07 L 4092.42,5010 L 4086.42,5013.46 L 3843,4872.93 Z " />
<path stroke="none" fill="#000000" transform="matrix(0.0666667 0 0 0.0666667 -235.967 -321)" d="M 3840,4931.06 L 3846,4920.66 L 4043.58,5034.73 L 4037.58,5045.13 L 3840,4931.06 Z " />
<path stroke="none" fill="#000000" transform="matrix(0.0666667 0 0 0.0666667 -235.967 -321)" d="M 3599.59,5013.46 L 3587.59,5006.54 L 3843,4859.07 L 3843,4872.93 L 3599.59,5013.46 Z " />
<text x="0" y="0" stroke="none" fill="#000000" transform="matrix(0.0666667 0 0 0.0666667 48.6743 47.0334)" font-style="normal" font-weight="bold" font-size="200px" font-family="Arial" >
N</text>
<path stroke="none" fill="#000000" transform="matrix(0.0666667 0 0 0.0666667 -235.967 -321)" d="M 4244.62,5378.95 L 4238.62,5389.34 L 4092.42,5304.93 L 4092.42,5298 L 4098.42,5294.54 L 4244.62,5378.95 Z " />
<path stroke="none" fill="#000000" transform="matrix(0.0666667 0 0 0.0666667 -235.967 -321)" d="M 4585.25,5294.54 L 4591.25,5298 L 4591.25,5304.93 L 4443.97,5389.96 L 4437.97,5379.57 L 4585.25,5294.54 Z " />
<path stroke="none" fill="#000000" transform="matrix(0.0666667 0 0 0.0666667 -235.967 -321)" d="M 4536.41,5262.87 L 4542.41,5273.27 L 4418.05,5345.06 L 4412.05,5334.67 L 4536.41,5262.87 Z " />
<path stroke="none" fill="#000000" transform="matrix(0.0666667 0 0 0.0666667 -235.967 -321)" d="M 4585.25,5013.46 L 4597.25,5006.54 L 4597.25,5294.54 L 4591.25,5298 L 4585.25,5294.54 L 4585.25,5013.46 Z " />
<path stroke="none" fill="#000000" transform="matrix(0.0666667 0 0 0.0666667 -235.967 -321)" d="M 4341.83,4872.93 L 4341.83,4859.07 L 4597.25,5006.54 L 4585.25,5013.46 L 4341.83,4872.93 Z " />
<path stroke="none" fill="#000000" transform="matrix(0.0666667 0 0 0.0666667 -235.967 -321)" d="M 4338.83,4931.06 L 4344.83,4920.66 L 4542.41,5034.73 L 4536.41,5045.13 L 4338.83,4931.06 Z " />
<path stroke="none" fill="#000000" transform="matrix(0.0666667 0 0 0.0666667 -235.967 -321)" d="M 4098.42,5013.46 L 4092.42,5010 L 4092.42,5003.07 L 4341.83,4859.07 L 4341.83,4872.93 L 4098.42,5013.46 Z " />
<path stroke="none" fill="#000000" transform="matrix(0.0666667 0 0 0.0666667 -235.967 -321)" d="M 4840.66,5435.07 L 4840.66,5448.93 L 4591.25,5304.93 L 4591.25,5298 L 4597.25,5294.54 L 4840.66,5435.07 Z " />
<text x="0" y="0" stroke="none" fill="#000000" transform="matrix(0.0666667 0 0 0.0666667 97.3222 35.9369)" font-style="normal" font-weight="bold" font-size="200px" font-family="Arial" >
O</text>
<path stroke="none" fill="#000000" transform="matrix(0.0666667 0 0 0.0666667 -235.967 -321)" d="M 4995.33,5345.77 L 5001.33,5356.17 L 4840.66,5448.93 L 4840.66,5435.07 L 4995.33,5345.77 Z " />
<path stroke="none" fill="#000000" transform="matrix(0.0666667 0 0 0.0666667 -235.967 -321)" d="M 4969.41,5300.88 L 4975.41,5311.27 L 4843.66,5387.34 L 4837.66,5376.94 L 4969.41,5300.88 Z " />
</svg>
