<svg width="145" height="49" viewBox="0 0 145 49" fill="none" xmlns="http://www.w3.org/2000/svg">
<g clip-path="url(#clip0_12_656)">
<path d="M0 48.7461V36.6865H3.9121C5.42646 36.6865 6.30983 36.6865 6.81462 36.8135C7.44561 36.9404 8.07659 37.4482 8.58138 37.956C9.08616 38.5907 9.33856 39.3523 9.33856 40.3679C9.33856 41.1295 9.21236 41.7642 8.95996 42.272C8.70757 42.7798 8.32898 43.1606 7.95039 43.4145C7.5718 43.6684 7.06702 43.9223 6.68843 44.0492C6.05744 44.1762 5.30026 44.1762 4.16449 44.1762H2.39774V48.7461H0ZM2.39774 38.7176V42.1451H3.7859C4.79547 42.1451 5.42646 42.1451 5.67885 42.0181C6.05744 41.8912 6.30983 41.6373 6.43603 41.3834C6.56223 41.1295 6.68843 40.7487 6.68843 40.4948C6.68843 40.114 6.56223 39.7332 6.30983 39.3523C6.05744 39.0984 5.67885 38.8446 5.30026 38.8446C5.04787 38.8446 4.41688 38.7176 3.53351 38.7176H2.39774Z" fill="#81489C"/>
<path d="M13.503 36.6865V41.1295C14.2602 40.2409 15.1436 39.8601 16.1532 39.8601C16.658 39.8601 17.1628 39.987 17.5413 40.114C17.9199 40.2409 18.2985 40.6218 18.5509 40.8756C18.8033 41.1295 18.9295 41.5104 19.0557 41.8912C19.1819 42.272 19.1819 42.9067 19.1819 43.6684V48.8731H16.9104V44.1762C16.9104 43.2876 16.9104 42.6528 16.7842 42.399C16.658 42.1451 16.5318 42.0181 16.2794 41.7642C16.027 41.5104 15.7746 41.5104 15.396 41.5104C15.0174 41.5104 14.6388 41.6373 14.3864 41.7642C14.134 41.8912 13.8816 42.272 13.7554 42.6528C13.6292 43.0337 13.503 43.5414 13.503 44.3031V48.7461H11.2315V36.6865H13.503Z" fill="#81489C"/>
<path d="M35.2089 29.9586H36.2184V30.4663L21.0748 39.3523L20.5701 38.4637L35.2089 29.9586Z" fill="black"/>
<path d="M52.2454 44.8109L54.6432 44.557C54.7694 45.3187 55.0218 45.9534 55.5265 46.3342C55.9051 46.715 56.5361 46.842 57.2933 46.842C58.0505 46.842 58.6815 46.715 59.0601 46.3342C59.4386 45.9534 59.691 45.5725 59.691 45.1917C59.691 44.9378 59.5648 44.6839 59.4386 44.4301C59.3124 44.1762 58.9339 44.0492 58.5553 43.9223C58.3029 43.7953 57.6719 43.6684 56.6623 43.4145C55.4004 43.0337 54.3908 42.6529 53.886 42.272C53.1288 41.6373 52.7502 40.7487 52.7502 39.8601C52.7502 39.2254 52.8764 38.7176 53.255 38.0829C53.6336 37.5751 54.1384 37.1943 54.7694 36.8135C55.4004 36.5596 56.1575 36.4326 57.1671 36.4326C58.6815 36.4326 59.8172 36.8135 60.5744 37.4482C61.3316 38.0829 61.7102 38.9715 61.8364 40.114L59.3125 40.2409C59.1863 39.6062 58.9339 39.2254 58.6815 38.8446C58.3029 38.5907 57.7981 38.4637 57.1671 38.4637C56.4099 38.4637 55.9051 38.5907 55.5265 38.8446C55.2742 38.9715 55.148 39.2254 55.148 39.6062C55.148 39.8601 55.2742 40.114 55.5265 40.3679C55.7789 40.6218 56.5361 40.8757 57.7981 41.1295C58.9339 41.3834 59.8172 41.6373 60.4482 42.0181C60.953 42.272 61.4578 42.7798 61.8364 43.2876C62.215 43.7953 62.3412 44.4301 62.3412 45.1917C62.3412 45.8264 62.0888 46.5881 61.7102 47.0959C61.3316 47.7306 60.8268 48.1114 60.0696 48.4922C59.3124 48.7461 58.5553 48.8731 57.4195 48.8731C55.9051 48.8731 54.7694 48.4922 53.886 47.8575C52.8764 47.2228 52.3716 46.2073 52.2454 44.8109Z" fill="#81489C"/>
<path d="M50.2263 37.5751L49.7215 38.4637L36.2184 30.4663V29.8316L36.7232 29.5777L50.2263 37.5751Z" fill="black"/>
<path d="M31.8016 12.0596V0H35.7137C37.228 0 38.1114 0 38.6162 0.126943C39.2472 0.253886 39.8782 0.761658 40.3829 1.26943C40.8877 1.90415 41.1401 2.6658 41.1401 3.68135C41.1401 4.44301 41.0139 5.07772 40.7615 5.58549C40.5091 6.09326 40.1306 6.47409 39.752 6.72798C39.3734 6.98187 38.8686 7.23575 38.49 7.36269C37.859 7.48964 37.1018 7.48964 35.9661 7.48964H34.3255V12.0596H31.8016ZM34.1993 2.03109V5.45855H35.5875C36.597 5.45855 37.228 5.45855 37.4804 5.33161C37.859 5.20466 38.1114 4.95078 38.2376 4.69689C38.3638 4.44301 38.49 4.06218 38.49 3.80829C38.49 3.42746 38.3638 3.04663 38.1114 2.6658C37.859 2.41192 37.4804 2.15803 37.1018 2.15803C36.8494 2.15803 36.2185 2.03109 35.3351 2.03109H34.1993Z" fill="#81489C"/>
<path d="M45.3046 0V4.44301C46.0618 3.5544 46.9452 3.17358 47.9548 3.17358C48.4595 3.17358 48.9643 3.30052 49.3429 3.42746C49.7215 3.5544 50.1001 3.93523 50.3525 4.18912C50.6049 4.44301 50.7311 4.82383 50.8573 5.20466C50.9835 5.58549 50.9835 6.22021 50.9835 6.98187V12.1865H48.7119V7.48964C48.7119 6.60104 48.7119 5.96632 48.5857 5.71244C48.4595 5.45855 48.2071 5.33161 48.0809 5.07772C47.8286 4.95078 47.5762 4.82383 47.1976 4.82383C46.819 4.82383 46.4404 4.95078 46.188 5.07772C45.9356 5.20466 45.6832 5.58549 45.557 5.96632C45.4308 6.34715 45.3046 6.85492 45.3046 7.61658V12.0596H43.0331V0H45.3046Z" fill="#81489C"/>
<path d="M35.7137 14.4715H36.7232V29.7047L36.2185 29.9585L35.7137 29.0699V14.4715Z" fill="black"/>
<path d="M0 24.3731V12.1865H3.9121C5.42646 12.1865 6.30983 12.1865 6.81462 12.3135C7.44561 12.4404 8.07659 12.9482 8.58138 13.456C9.08616 14.0907 9.33856 14.8523 9.33856 15.8679C9.33856 16.6295 9.21236 17.2642 8.95996 17.772C8.70757 18.2798 8.32898 18.6606 7.95039 18.9145C7.5718 19.1684 7.06702 19.4223 6.68843 19.5492C6.05744 19.6762 5.30026 19.6762 4.16449 19.6762H2.39774V24.2461H0V24.3731ZM2.39774 14.2176V17.772H3.7859C4.79547 17.772 5.42646 17.772 5.67885 17.6451C6.05744 17.5181 6.30983 17.2642 6.43603 17.0104C6.56223 16.7565 6.68843 16.3756 6.68843 16.1218C6.68843 15.7409 6.56223 15.3601 6.30983 14.9793C6.05744 14.7254 5.67885 14.4715 5.30026 14.4715C5.04787 14.4715 4.41688 14.3446 3.53351 14.3446H2.39774V14.2176Z" fill="#81489C"/>
<path d="M13.503 12.1865V16.6295C14.2602 15.7409 15.1436 15.3601 16.1532 15.3601C16.658 15.3601 17.1628 15.487 17.5413 15.614C17.9199 15.7409 18.2985 16.1218 18.5509 16.3756C18.8033 16.6295 18.9295 17.0104 19.0557 17.3912C19.1819 17.772 19.1819 18.4067 19.1819 19.1684V24.3731H16.9104V19.6762C16.9104 18.7876 16.9104 18.1528 16.7842 17.899C16.658 17.6451 16.5318 17.3912 16.2794 17.2642C16.027 17.1373 15.7746 17.0104 15.396 17.0104C15.0174 17.0104 14.6388 17.1373 14.3864 17.2642C14.134 17.3912 13.8816 17.772 13.7554 18.1528C13.6292 18.5337 13.503 19.0414 13.503 19.8031V24.2461H11.2315V12.1865H13.503Z" fill="#81489C"/>
<path d="M22.8416 22.7228L23.3464 21.8342L35.7137 29.0699L36.2184 29.9586H35.2089L22.8416 22.7228Z" fill="black"/>
<path d="M78.3681 29.3238V30.4663L64.6127 38.4637L64.1079 37.5751L78.3681 29.3238Z" fill="black"/>
<path d="M99.3168 41.5104V42.6528L78.3681 30.4663V29.3238L99.3168 41.5104Z" fill="black"/>
<path d="M115.596 36.5596V24.5H117.994L122.916 32.6244V24.5H125.187V36.5596H122.789L117.994 28.6891V36.5596H115.596Z" fill="#81489C"/>
<path d="M127.711 36.5596V24.5H130.109V29.1969H134.904V24.373H137.302V36.4326H134.904V31.101H130.109V36.4326H127.711V36.5596Z" fill="#81489C"/>
<path d="M145 38.5907V40.2409H138.943C139.069 39.6062 139.195 39.0984 139.574 38.4637C139.952 37.829 140.583 37.1943 141.466 36.3057C142.224 35.544 142.728 35.0363 142.855 34.7824C143.107 34.4016 143.233 34.0207 143.233 33.7668C143.233 33.386 143.107 33.1321 142.981 32.8782C142.728 32.6243 142.476 32.6243 142.097 32.6243C141.719 32.6243 141.467 32.7513 141.214 33.0052C140.962 33.2591 140.836 33.6399 140.836 34.1477L139.069 34.0207C139.195 33.0052 139.447 32.3705 140.078 31.9896C140.583 31.6088 141.34 31.3549 142.097 31.3549C142.981 31.3549 143.738 31.6088 144.243 32.1166C144.748 32.6243 145 33.2591 145 33.8938C145 34.2746 144.874 34.6554 144.748 35.0363C144.621 35.4171 144.369 35.7979 144.117 36.1788C143.864 36.4326 143.486 36.8135 142.981 37.3212C142.476 37.829 142.097 38.2098 141.971 38.3368C141.845 38.4637 141.719 38.7176 141.593 38.8446H145V38.5907Z" fill="#81489C"/>
<path d="M111.558 34.5285L112.063 35.4171L99.3168 42.7798V41.6373L111.558 34.5285Z" fill="black"/>
</g>
<defs>
<clipPath id="clip0_12_656">
<rect width="145" height="49" fill="white"/>
</clipPath>
</defs>
</svg>
