<svg width="163px" height="115px" viewBox="0 0 163 115" style="background-color: #ffffff00" xmlns="http://www.w3.org/2000/svg" xmlns:xlink="http://www.w3.org/1999/xlink" version="1.1" >
<text x="0" y="0" stroke="none" fill="#000000" transform="matrix(0.0666667 0 0 0.0666667 106.839 14.6441)" font-style="normal" font-weight="bold" font-size="200px" font-family="Arial" >
O</text>
<text x="0" y="0" stroke="none" fill="#000000" transform="matrix(0.0666667 0 0 0.0666667 140.364 17.2309)" font-style="normal" font-weight="bold" font-size="200px" font-family="Arial" >
H</text>
<text x="0" y="0" stroke="none" fill="#000000" transform="matrix(0.0666667 0 0 0.0666667 139.54 42.8206)" font-style="normal" font-weight="bold" font-size="200px" font-family="Arial" >
OH</text>
<text x="0" y="0" stroke="none" fill="#000000" transform="matrix(0.0666667 0 0 0.0666667 43.1571 44.1404)" font-style="normal" font-weight="bold" font-size="200px" font-family="Arial" >
HO</text>
<text x="0" y="0" stroke="none" fill="#000000" transform="matrix(0.0666667 0 0 0.0666667 70.527 92.2072)" font-style="normal" font-weight="bold" font-size="200px" font-family="Arial" >
F</text>
<text x="0" y="0" stroke="none" fill="#000000" transform="matrix(0.0666667 0 0 0.0666667 2.90299 111.34)" font-style="normal" font-weight="bold" font-size="200px" font-family="Arial" >
O</text>
<path stroke="none" fill="#000000" transform="matrix(0.0666667 0 0 0.0666667 -372.967 -321)" d="M 7542.72,5101.28 L 7535.93,5111.17 L 7374.47,5000.36 L 7381.26,4990.47 L 7542.72,5101.28 Z " />
<path stroke="none" fill="#000000" transform="matrix(0.0666667 0 0 0.0666667 -372.967 -321)" d="M 7513.39,5144.02 L 7506.6,5153.91 L 7345.14,5043.1 L 7351.93,5033.21 L 7513.39,5144.02 Z " />
<path stroke="none" fill="#000000" transform="matrix(0.0666667 0 0 0.0666667 -372.967 -321)" d="M 7667.43,5038.37 L 7672.6,5049.19 L 7543.85,5110.71 L 7482.35,5126.8 L 7667.43,5038.37 Z " />
<path stroke="none" fill="#000000" transform="matrix(0.0666667 0 0 0.0666667 -372.967 -321)" d="M 7492.51,5452.05 L 7486.22,5453.61 L 7480.27,5449.24 L 7482.35,5126.8 L 7543.85,5110.71 L 7492.51,5452.05 Z " />
<path stroke="none" fill="#000000" transform="matrix(0.0666667 0 0 0.0666667 -372.967 -321)" d="M 7658,5376.52 L 7673.52,5434.48 L 7661.38,5435.53 L 7646.95,5381.68 L 7658,5376.52 Z " />
<path stroke="none" fill="#000000" transform="matrix(0.0666667 0 0 0.0666667 -372.967 -321)" d="M 7601.12,5403.09 L 7610.98,5439.91 L 7598.84,5440.97 L 7590.07,5408.25 L 7601.12,5403.09 Z " />
<path stroke="none" fill="#000000" transform="matrix(0.0666667 0 0 0.0666667 -372.967 -321)" d="M 7544.24,5429.65 L 7548.44,5445.35 L 7536.3,5446.4 L 7533.19,5434.81 L 7544.24,5429.65 Z " />
<path stroke="none" fill="#000000" transform="matrix(0.0666667 0 0 0.0666667 -372.967 -321)" d="M 7218.32,5546.96 L 7212.32,5542.61 L 7220.08,5533.77 L 7480.27,5449.24 L 7486.22,5453.61 L 7483.93,5460.66 L 7218.32,5546.96 Z " />
<path stroke="none" fill="#000000" transform="matrix(0.0666667 0 0 0.0666667 -372.967 -321)" d="M 6962.9,5405.53 L 6962.9,5391.68 L 7206.56,5532.35 L 7212.32,5542.61 L 7206.32,5546.07 L 6962.9,5405.53 Z " />
<path stroke="none" fill="#000000" transform="matrix(0.0666667 0 0 0.0666667 -372.967 -321)" d="M 6719.49,5546.07 L 6713.49,5542.61 L 6713.91,5535.43 L 6962.9,5391.68 L 6962.9,5405.53 L 6719.49,5546.07 Z " />
<path stroke="none" fill="#000000" transform="matrix(0.0666667 0 0 0.0666667 -372.967 -321)" d="M 6541.37,5477.87 L 6571.37,5425.91 L 6713.91,5535.43 L 6713.49,5542.61 L 6707.49,5546.56 L 6541.37,5477.87 Z " />
<path stroke="none" fill="#000000" transform="matrix(0.0666667 0 0 0.0666667 -372.967 -321)" d="M 6719.49,5827.14 L 6713.49,5830.61 L 6707.49,5827.14 L 6707.49,5546.56 L 6713.49,5542.61 L 6719.49,5546.07 L 6719.49,5827.14 Z " />
<path stroke="none" fill="#000000" transform="matrix(0.0666667 0 0 0.0666667 -372.967 -321)" d="M 6743.49,6019.28 L 6683.49,6019.28 L 6685.57,6007.28 L 6741.41,6007.28 L 6743.49,6019.28 Z " />
<path stroke="none" fill="#000000" transform="matrix(0.0666667 0 0 0.0666667 -372.967 -321)" d="M 6732.53,5956.03 L 6694.45,5956.03 L 6696.53,5944.03 L 6730.45,5944.03 L 6732.53,5956.03 Z " />
<path stroke="none" fill="#000000" transform="matrix(0.0666667 0 0 0.0666667 -372.967 -321)" d="M 6721.57,5892.78 L 6705.41,5892.78 L 6707.49,5880.78 L 6719.49,5880.78 L 6721.57,5892.78 Z " />
<path stroke="none" fill="#000000" transform="matrix(0.0666667 0 0 0.0666667 -372.967 -321)" d="M 6470.07,5978.07 L 6464.07,5974.61 L 6470.98,5963.69 L 6707.49,5827.14 L 6713.49,5830.61 L 6713.49,5837.53 L 6470.07,5978.07 Z " />
<path stroke="none" fill="#000000" transform="matrix(0.0666667 0 0 0.0666667 -372.967 -321)" d="M 6470.07,6259.14 L 6464.07,6262.6 L 6458.07,6259.14 L 6458.07,5978.07 L 6464.07,5974.61 L 6470.07,5978.07 L 6470.07,6259.14 Z " />
<path stroke="none" fill="#000000" transform="matrix(0.0666667 0 0 0.0666667 -372.967 -321)" d="M 6214.66,6413.53 L 6214.66,6399.68 L 6458.07,6259.14 L 6464.07,6262.6 L 6464.07,6269.53 L 6214.66,6413.53 Z " />
<path stroke="none" fill="#000000" transform="matrix(0.0666667 0 0 0.0666667 -372.967 -321)" d="M 6217.66,6351.94 L 6211.66,6341.55 L 6409.23,6227.48 L 6415.23,6237.87 L 6217.66,6351.94 Z " />
<path stroke="none" fill="#000000" transform="matrix(0.0666667 0 0 0.0666667 -372.967 -321)" d="M 5959.24,6266.07 L 5971.24,6259.14 L 6214.66,6399.68 L 6214.66,6413.53 L 5959.24,6266.07 Z " />
<path stroke="none" fill="#000000" transform="matrix(0.0666667 0 0 0.0666667 -372.967 -321)" d="M 5821.29,6382.57 L 5815.29,6372.18 L 5988.16,6272.37 L 5994.16,6282.77 L 5821.29,6382.57 Z " />
<path stroke="none" fill="#000000" transform="matrix(0.0666667 0 0 0.0666667 -372.967 -321)" d="M 5795.37,6337.68 L 5789.37,6327.29 L 5962.24,6227.48 L 5968.24,6237.87 L 5795.37,6337.68 Z " />
<path stroke="none" fill="#000000" transform="matrix(0.0666667 0 0 0.0666667 -372.967 -321)" d="M 5959.24,5971.14 L 5971.24,5978.07 L 5971.24,6259.14 L 5959.24,6266.07 L 5959.24,5971.14 Z " />
<path stroke="none" fill="#000000" transform="matrix(0.0666667 0 0 0.0666667 -372.967 -321)" d="M 6214.66,5823.68 L 6214.66,5837.53 L 5971.24,5978.07 L 5959.24,5971.14 L 6214.66,5823.68 Z " />
<path stroke="none" fill="#000000" transform="matrix(0.0666667 0 0 0.0666667 -372.967 -321)" d="M 6211.66,5885.27 L 6217.66,5895.66 L 6020.08,6009.73 L 6014.08,5999.34 L 6211.66,5885.27 Z " />
<path stroke="none" fill="#000000" transform="matrix(0.0666667 0 0 0.0666667 -372.967 -321)" d="M 6214.66,5837.53 L 6214.66,5823.68 L 6457.17,5963.69 L 6464.07,5974.61 L 6458.07,5978.07 L 6214.66,5837.53 Z " />
<path stroke="none" fill="#000000" transform="matrix(0.0666667 0 0 0.0666667 -372.967 -321)" d="M 6713.49,6399.68 L 6713.49,6413.53 L 6464.07,6269.53 L 6464.07,6262.6 L 6470.07,6259.14 L 6713.49,6399.68 Z " />
<path stroke="none" fill="#000000" transform="matrix(0.0666667 0 0 0.0666667 -372.967 -321)" d="M 6956.9,6259.14 L 6968.9,6266.07 L 6713.49,6413.53 L 6713.49,6399.68 L 6956.9,6259.14 Z " />
<path stroke="none" fill="#000000" transform="matrix(0.0666667 0 0 0.0666667 -372.967 -321)" d="M 6956.9,5978.07 L 6962.9,5974.61 L 6968.9,5978.07 L 6968.9,6266.07 L 6956.9,6259.14 L 6956.9,5978.07 Z " />
<path stroke="none" fill="#000000" transform="matrix(0.0666667 0 0 0.0666667 -372.967 -321)" d="M 6955.43,5963.36 L 6962.9,5974.61 L 6956.9,5978.07 L 6713.49,5837.53 L 6713.49,5830.61 L 6719.49,5827.14 L 6955.43,5963.36 Z " />
<path stroke="none" fill="#000000" transform="matrix(0.0666667 0 0 0.0666667 -372.967 -321)" d="M 7206.32,5827.14 L 7212.32,5830.61 L 7213.01,5837.14 L 6968.9,5978.07 L 6962.9,5974.61 L 6970.38,5963.36 L 7206.32,5827.14 Z " />
<path stroke="none" fill="#000000" transform="matrix(0.0666667 0 0 0.0666667 -372.967 -321)" d="M 7218.32,5826.25 L 7212.32,5830.61 L 7206.32,5827.14 L 7206.32,5546.07 L 7212.32,5542.61 L 7218.32,5546.96 L 7218.32,5826.25 Z " />
<path stroke="none" fill="#000000" transform="matrix(0.0666667 0 0 0.0666667 -372.967 -321)" d="M 7483.93,5912.55 L 7488.52,5926.66 L 7213.01,5837.14 L 7212.32,5830.61 L 7218.32,5826.25 L 7483.93,5912.55 Z " />
<path stroke="none" fill="#000000" transform="matrix(0.0666667 0 0 0.0666667 -372.967 -321)" d="M 7648.09,5686.61 L 7662.92,5686.61 L 7488.52,5926.66 L 7483.93,5912.55 L 7648.09,5686.61 Z " />
<path stroke="none" fill="#000000" transform="matrix(0.0666667 0 0 0.0666667 -372.967 -321)" d="M 7662.92,5686.61 L 7648.09,5686.61 L 7483.93,5460.66 L 7486.22,5453.61 L 7492.51,5452.05 L 7662.92,5686.61 Z " />
<path stroke="none" fill="#000000" transform="matrix(0.0666667 0 0 0.0666667 -372.967 -321)" d="M 7943.51,5656.61 L 7943.51,5716.61 L 7931.51,5715.4 L 7931.51,5657.82 L 7943.51,5656.61 Z " />
<path stroke="none" fill="#000000" transform="matrix(0.0666667 0 0 0.0666667 -372.967 -321)" d="M 7887.01,5662.3 L 7887.01,5710.91 L 7875.01,5709.7 L 7875.01,5663.51 L 7887.01,5662.3 Z " />
<path stroke="none" fill="#000000" transform="matrix(0.0666667 0 0 0.0666667 -372.967 -321)" d="M 7830.51,5668 L 7830.51,5705.21 L 7818.51,5704 L 7818.51,5669.21 L 7830.51,5668 Z " />
<path stroke="none" fill="#000000" transform="matrix(0.0666667 0 0 0.0666667 -372.967 -321)" d="M 7774.01,5673.7 L 7774.01,5699.51 L 7762.01,5698.3 L 7762.01,5674.91 L 7774.01,5673.7 Z " />
<path stroke="none" fill="#000000" transform="matrix(0.0666667 0 0 0.0666667 -372.967 -321)" d="M 7717.51,5679.4 L 7717.51,5693.82 L 7705.51,5692.61 L 7705.51,5680.61 L 7717.51,5679.4 Z " />
<path stroke="none" fill="#000000" transform="matrix(0.0666667 0 0 0.0666667 -372.967 -321)" d="M 6434.07,5685.6 L 6494.07,5685.6 L 6470.98,5963.69 L 6464.07,5974.61 L 6457.17,5963.69 L 6434.07,5685.6 Z " />
<path stroke="none" fill="#000000" transform="matrix(0.0666667 0 0 0.0666667 -372.967 -321)" d="M 7212.59,5253.05 L 7272.26,5259.32 L 7220.08,5533.77 L 7212.32,5542.61 L 7206.56,5532.35 L 7212.59,5253.05 Z " />
<text x="0" y="0" stroke="none" fill="#000000" transform="matrix(0.0666667 0 0 0.0666667 86.4125 63.2735)" font-style="normal" font-weight="bold" font-size="200px" font-family="Arial" >
H</text>
<path stroke="none" fill="#000000" transform="matrix(0.0666667 0 0 0.0666667 -372.967 -321)" d="M 6932.9,5791.27 L 6992.9,5791.27 L 6970.38,5963.36 L 6962.9,5974.61 L 6955.43,5963.36 L 6932.9,5791.27 Z " />
<text x="0" y="0" stroke="none" fill="#000000" transform="matrix(0.0666667 0 0 0.0666667 103.04 92.2072)" font-style="normal" font-weight="bold" font-size="200px" font-family="Arial" >
H</text>
<path stroke="none" fill="#000000" transform="matrix(0.0666667 0 0 0.0666667 -372.967 -321)" d="M 7242.32,6019.28 L 7182.32,6019.28 L 7184.4,6007.28 L 7240.24,6007.28 L 7242.32,6019.28 Z " />
<path stroke="none" fill="#000000" transform="matrix(0.0666667 0 0 0.0666667 -372.967 -321)" d="M 7231.36,5956.03 L 7193.28,5956.03 L 7195.36,5944.03 L 7229.28,5944.03 L 7231.36,5956.03 Z " />
<path stroke="none" fill="#000000" transform="matrix(0.0666667 0 0 0.0666667 -372.967 -321)" d="M 7220.4,5892.78 L 7204.24,5892.78 L 7206.32,5880.78 L 7218.32,5880.78 L 7220.4,5892.78 Z " />
</svg>