<svg width="152px" height="65px" viewBox="0 0 152 65" style="background-color: #ffffff00" xmlns="http://www.w3.org/2000/svg" xmlns:xlink="http://www.w3.org/1999/xlink" version="1.1" >
<path stroke="none" fill="#000000" transform="matrix(0.0666667 0 0 0.0666667 -266.967 -349)" d="M 4740.81,5648.07 L 4740.81,5661.93 L 4491.39,5805.93 L 4491.39,5792.07 L 4740.81,5648.07 Z " />
<text x="0" y="0" stroke="none" fill="#000000" transform="matrix(0.0666667 0 0 0.0666667 43.9016 14.0334)" font-style="normal" font-weight="bold" font-size="200px" font-family="Arial" >
O</text>
<path stroke="none" fill="#000000" transform="matrix(0.0666667 0 0 0.0666667 -266.967 -349)" d="M 4708.89,5475.33 L 4720.89,5475.33 L 4720.89,5669.97 L 4708.89,5669.97 L 4708.89,5475.33 Z " />
<path stroke="none" fill="#000000" transform="matrix(0.0666667 0 0 0.0666667 -266.967 -349)" d="M 4760.73,5475.33 L 4772.73,5475.33 L 4772.73,5669.97 L 4760.73,5669.97 L 4760.73,5475.33 Z " />
<text x="0" y="0" stroke="none" fill="#000000" transform="matrix(0.0666667 0 0 0.0666667 60.9004 42.8334)" font-style="normal" font-weight="bold" font-size="200px" font-family="Arial" >
N</text>
<text x="0" y="0" stroke="none" fill="#000000" transform="matrix(0.0666667 0 0 0.0666667 60.9004 53.9556)" font-style="normal" font-weight="bold" font-size="200px" font-family="Arial" >
H</text>
<path stroke="none" fill="#000000" transform="matrix(0.0666667 0 0 0.0666667 -266.967 -349)" d="M 4893.01,5735.95 L 4887.01,5746.34 L 4740.81,5661.93 L 4740.81,5648.07 L 4893.01,5735.95 Z " />
<text x="0" y="0" stroke="none" fill="#000000" transform="matrix(0.0666667 0 0 0.0666667 3.60853 33.2334)" font-style="normal" font-weight="bold" font-size="200px" font-family="Arial" >
Br</text>
<path stroke="none" fill="#000000" transform="matrix(0.0666667 0 0 0.0666667 -266.967 -349)" d="M 4290.05,5689.68 L 4296.05,5679.29 L 4491.39,5792.07 L 4491.39,5805.93 L 4290.05,5689.68 Z " />
<path stroke="none" fill="#000000" transform="matrix(0.0666667 0 0 0.0666667 -266.967 -349)" d="M 5239.64,5648.07 L 5239.64,5661.93 L 5092.36,5746.96 L 5086.36,5736.57 L 5239.64,5648.07 Z " />
<path stroke="none" fill="#000000" transform="matrix(0.0666667 0 0 0.0666667 -266.967 -349)" d="M 5489.05,5792.07 L 5489.05,5805.93 L 5239.64,5661.93 L 5239.64,5648.07 L 5489.05,5792.07 Z " />
<text x="0" y="0" stroke="none" fill="#000000" transform="matrix(0.0666667 0 0 0.0666667 110.412 33.2334)" font-style="normal" font-weight="bold" font-size="200px" font-family="Arial" >
O</text>
<path stroke="none" fill="#000000" transform="matrix(0.0666667 0 0 0.0666667 -266.967 -349)" d="M 5643.72,5702.78 L 5649.72,5713.17 L 5489.05,5805.93 L 5489.05,5792.07 L 5643.72,5702.78 Z " />
<text x="0" y="0" stroke="none" fill="#000000" transform="matrix(0.0666667 0 0 0.0666667 93.7847 62.0334)" font-style="normal" font-weight="bold" font-size="200px" font-family="Arial" >
O</text>
<path stroke="none" fill="#000000" transform="matrix(0.0666667 0 0 0.0666667 -266.967 -349)" d="M 5520.97,5984.33 L 5508.97,5984.33 L 5508.97,5784.04 L 5520.97,5784.04 L 5520.97,5984.33 Z " />
<path stroke="none" fill="#000000" transform="matrix(0.0666667 0 0 0.0666667 -266.967 -349)" d="M 5469.13,5984.33 L 5457.13,5984.33 L 5457.13,5784.04 L 5469.13,5784.04 L 5469.13,5984.33 Z " />
<path stroke="none" fill="#000000" transform="matrix(0.0666667 0 0 0.0666667 -266.967 -349)" d="M 5981.88,5788.61 L 5987.88,5799 L 5981.88,5802.46 L 5827.66,5713.42 L 5833.66,5703.03 L 5981.88,5788.61 Z " />
<path stroke="none" fill="#000000" transform="matrix(0.0666667 0 0 0.0666667 -266.967 -349)" d="M 6234.3,5649.8 L 6240.3,5660.2 L 5993.88,5802.46 L 5987.88,5799 L 5993.88,5788.61 L 6234.3,5649.8 Z " />
<path stroke="none" fill="#000000" transform="matrix(0.0666667 0 0 0.0666667 -266.967 -349)" d="M 5993.88,6087 L 5981.88,6087 L 5981.88,5802.46 L 5987.88,5799 L 5993.88,5802.46 L 5993.88,6087 Z " />
<path stroke="none" fill="#000000" transform="matrix(0.0666667 0 0 0.0666667 -266.967 -349)" d="M 5981.88,5511 L 5993.88,5511 L 5993.88,5788.61 L 5987.88,5799 L 5981.88,5788.61 L 5981.88,5511 Z " />
</svg>
