<svg width="189px" height="150px" viewBox="0 0 189 150" style="background-color: #ffffff00" xmlns="http://www.w3.org/2000/svg" xmlns:xlink="http://www.w3.org/1999/xlink" version="1.1" >
<path stroke="none" fill="#000000" transform="matrix(0.0666667 0 0 0.0666667 -278.967 -298)" d="M 4934.59,5744.54 L 4928.59,5748 L 4922.59,5744.54 L 4922.59,5456.54 L 4934.59,5463.47 L 4934.59,5744.54 Z " />
<path stroke="none" fill="#000000" transform="matrix(0.0666667 0 0 0.0666667 -278.967 -298)" d="M 4986.43,5718.07 L 4974.43,5718.07 L 4974.43,5489.93 L 4986.43,5489.93 L 4986.43,5718.07 Z " />
<path stroke="none" fill="#000000" transform="matrix(0.0666667 0 0 0.0666667 -278.967 -298)" d="M 5178,5885.07 L 5178,5892 L 5172,5895.47 L 4928.59,5754.93 L 4928.59,5748 L 4934.59,5744.54 L 5178,5885.07 Z " />
<path stroke="none" fill="#000000" transform="matrix(0.0666667 0 0 0.0666667 -278.967 -298)" d="M 5421.42,5744.54 L 5427.42,5748 L 5427.42,5754.93 L 5184,5895.47 L 5178,5892 L 5178,5885.07 L 5421.42,5744.54 Z " />
<path stroke="none" fill="#000000" transform="matrix(0.0666667 0 0 0.0666667 -278.967 -298)" d="M 5372.58,5712.88 L 5378.58,5723.27 L 5181,5837.34 L 5175,5826.95 L 5372.58,5712.88 Z " />
<path stroke="none" fill="#000000" transform="matrix(0.0666667 0 0 0.0666667 -278.967 -298)" d="M 5421.42,5463.47 L 5427.42,5460 L 5433.42,5463.47 L 5433.42,5744.54 L 5427.42,5748 L 5421.42,5744.54 L 5421.42,5463.47 Z " />
<path stroke="none" fill="#000000" transform="matrix(0.0666667 0 0 0.0666667 -278.967 -298)" d="M 5178,5322.93 L 5178,5316 L 5184,5312.54 L 5427.42,5453.07 L 5427.42,5460 L 5421.42,5463.47 L 5178,5322.93 Z " />
<path stroke="none" fill="#000000" transform="matrix(0.0666667 0 0 0.0666667 -278.967 -298)" d="M 5175,5381.06 L 5181,5370.66 L 5378.58,5484.74 L 5372.58,5495.13 L 5175,5381.06 Z " />
<path stroke="none" fill="#000000" transform="matrix(0.0666667 0 0 0.0666667 -278.967 -298)" d="M 4934.59,5463.47 L 4922.59,5456.54 L 5172,5312.54 L 5178,5316 L 5178,5322.93 L 4934.59,5463.47 Z " />
<text x="0" y="0" stroke="none" fill="#000000" transform="matrix(0.0666667 0 0 0.0666667 111.302 90.4334)" font-style="normal" font-weight="bold" font-size="200px" font-family="Arial" >
N</text>
<path stroke="none" fill="#000000" transform="matrix(0.0666667 0 0 0.0666667 -278.967 -298)" d="M 5676.83,5885.07 L 5676.83,5898.93 L 5427.42,5754.93 L 5427.42,5748 L 5433.42,5744.54 L 5676.83,5885.07 Z " />
<path stroke="none" fill="#000000" transform="matrix(0.0666667 0 0 0.0666667 -278.967 -298)" d="M 5820.72,5802 L 5826.72,5812.39 L 5676.83,5898.93 L 5676.83,5885.07 L 5820.72,5802 Z " />
<path stroke="none" fill="#000000" transform="matrix(0.0666667 0 0 0.0666667 -278.967 -298)" d="M 5794.8,5757.1 L 5800.8,5767.49 L 5679.83,5837.34 L 5673.83,5826.95 L 5794.8,5757.1 Z " />
<path stroke="none" fill="#000000" transform="matrix(0.0666667 0 0 0.0666667 -278.967 -298)" d="M 5920.25,5463.47 L 5926.25,5460 L 5932.25,5463.47 L 5932.25,5647.67 L 5920.25,5647.67 L 5920.25,5463.47 Z " />
<path stroke="none" fill="#000000" transform="matrix(0.0666667 0 0 0.0666667 -278.967 -298)" d="M 5676.83,5322.93 L 5676.83,5309.07 L 5926.25,5453.07 L 5926.25,5460 L 5920.25,5463.47 L 5676.83,5322.93 Z " />
<path stroke="none" fill="#000000" transform="matrix(0.0666667 0 0 0.0666667 -278.967 -298)" d="M 5673.83,5381.06 L 5679.83,5370.67 L 5877.41,5484.74 L 5871.41,5495.13 L 5673.83,5381.06 Z " />
<path stroke="none" fill="#000000" transform="matrix(0.0666667 0 0 0.0666667 -278.967 -298)" d="M 5433.42,5463.47 L 5427.42,5460 L 5427.42,5453.07 L 5676.83,5309.07 L 5676.83,5322.93 L 5433.42,5463.47 Z " />
<path stroke="none" fill="#000000" transform="matrix(0.0666667 0 0 0.0666667 -278.967 -298)" d="M 6175.66,5885.07 L 6175.66,5898.93 L 6024.7,5811.77 L 6030.7,5801.38 L 6175.66,5885.07 Z " />
<path stroke="none" fill="#000000" transform="matrix(0.0666667 0 0 0.0666667 -278.967 -298)" d="M 6419.08,5744.54 L 6431.08,5751.47 L 6175.66,5898.93 L 6175.66,5885.07 L 6419.08,5744.54 Z " />
<path stroke="none" fill="#000000" transform="matrix(0.0666667 0 0 0.0666667 -278.967 -298)" d="M 6419.08,5463.47 L 6425.08,5460 L 6431.08,5463.47 L 6431.08,5751.47 L 6419.08,5744.54 L 6419.08,5463.47 Z " />
<path stroke="none" fill="#000000" transform="matrix(0.0666667 0 0 0.0666667 -278.967 -298)" d="M 6175.66,5322.93 L 6175.66,5316 L 6181.66,5312.54 L 6425.08,5453.07 L 6425.08,5460 L 6419.08,5463.47 L 6175.66,5322.93 Z " />
<path stroke="none" fill="#000000" transform="matrix(0.0666667 0 0 0.0666667 -278.967 -298)" d="M 6224.5,5291.27 L 6230.5,5280.88 L 6428.08,5394.95 L 6422.08,5405.34 L 6224.5,5291.27 Z " />
<path stroke="none" fill="#000000" transform="matrix(0.0666667 0 0 0.0666667 -278.967 -298)" d="M 5932.25,5463.47 L 5926.25,5460 L 5926.25,5453.07 L 6169.66,5312.54 L 6175.66,5316 L 6175.66,5322.93 L 5932.25,5463.47 Z " />
<path stroke="none" fill="#000000" transform="matrix(0.0666667 0 0 0.0666667 -278.967 -298)" d="M 6668.49,5312.54 L 6680.49,5319.47 L 6431.08,5463.47 L 6425.08,5460 L 6425.08,5453.07 L 6668.49,5312.54 Z " />
<path stroke="none" fill="#000000" transform="matrix(0.0666667 0 0 0.0666667 -278.967 -298)" d="M 6668.49,5031.47 L 6674.49,5028 L 6680.49,5030.67 L 6680.49,5319.47 L 6668.49,5312.54 L 6668.49,5031.47 Z " />
<path stroke="none" fill="#000000" transform="matrix(0.0666667 0 0 0.0666667 -278.967 -298)" d="M 6616.65,5057.93 L 6628.65,5057.93 L 6628.65,5286.07 L 6616.65,5286.07 L 6616.65,5057.93 Z " />
<path stroke="none" fill="#000000" transform="matrix(0.0666667 0 0 0.0666667 -278.967 -298)" d="M 6425.08,4890.93 L 6425.08,4884 L 6431.85,4880.99 L 6673.72,5020.63 L 6674.49,5028 L 6668.49,5031.47 L 6425.08,4890.93 Z " />
<path stroke="none" fill="#000000" transform="matrix(0.0666667 0 0 0.0666667 -278.967 -298)" d="M 6181.66,5031.47 L 6169.66,5024.54 L 6419.76,4880.14 L 6425.08,4884 L 6425.08,4890.93 L 6181.66,5031.47 Z " />
<path stroke="none" fill="#000000" transform="matrix(0.0666667 0 0 0.0666667 -278.967 -298)" d="M 6230.5,5063.13 L 6224.5,5052.74 L 6422.08,4938.67 L 6428.08,4949.06 L 6230.5,5063.13 Z " />
<path stroke="none" fill="#000000" transform="matrix(0.0666667 0 0 0.0666667 -278.967 -298)" d="M 6181.66,5312.54 L 6175.66,5316 L 6169.66,5312.54 L 6169.66,5024.54 L 6181.66,5031.47 L 6181.66,5312.54 Z " />
<text x="0" y="0" stroke="none" fill="#000000" transform="matrix(0.0666667 0 0 0.0666667 175.082 29.5861)" font-style="normal" font-weight="bold" font-size="200px" font-family="Arial" >
O</text>
<text x="0" y="0" stroke="none" fill="#000000" transform="matrix(0.0666667 0 0 0.0666667 148.178 14.053)" font-style="normal" font-weight="bold" font-size="200px" font-family="Arial" >
O</text>
<path stroke="none" fill="#000000" transform="matrix(0.0666667 0 0 0.0666667 -278.967 -298)" d="M 6804.5,4902.87 L 6812.53,4911.79 L 6680.49,5030.67 L 6674.49,5028 L 6673.72,5020.63 L 6804.5,4902.87 Z " />
<path stroke="none" fill="#000000" transform="matrix(0.0666667 0 0 0.0666667 -278.967 -298)" d="M 6767.67,4578.61 L 6775.09,4565.77 L 6851.66,4737.75 L 6840.69,4742.63 L 6767.67,4578.61 Z " />
<path stroke="none" fill="#000000" transform="matrix(0.0666667 0 0 0.0666667 -278.967 -298)" d="M 6585.87,4597.72 L 6584.61,4585.79 L 6775.09,4565.77 L 6767.67,4578.61 L 6585.87,4597.72 Z " />
<path stroke="none" fill="#000000" transform="matrix(0.0666667 0 0 0.0666667 -278.967 -298)" d="M 6431.85,4880.99 L 6425.08,4884 L 6419.76,4880.14 L 6456.39,4707.84 L 6468.13,4710.33 L 6431.85,4880.99 Z " />
<text x="0" y="0" stroke="none" fill="#000000" transform="matrix(0.0666667 0 0 0.0666667 61.0479 119.233)" font-style="normal" font-weight="bold" font-size="200px" font-family="Arial" >
OCH</text>
<text x="0" y="0" stroke="none" fill="#000000" transform="matrix(0.0666667 0 0 0.0666667 90.6768 122.1)" font-style="normal" font-weight="bold" font-size="150px" font-family="Arial" >
3</text>
<path stroke="none" fill="#000000" transform="matrix(0.0666667 0 0 0.0666667 -278.967 -298)" d="M 5184,6077.33 L 5172,6077.33 L 5172,5895.47 L 5178,5892 L 5184,5895.47 L 5184,6077.33 Z " />
<text x="0" y="0" stroke="none" fill="#000000" transform="matrix(0.0666667 0 0 0.0666667 2.97315 100.033)" font-style="normal" font-weight="bold" font-size="200px" font-family="Arial" >
H</text>
<text x="0" y="0" stroke="none" fill="#000000" transform="matrix(0.0666667 0 0 0.0666667 12.6021 102.9)" font-style="normal" font-weight="bold" font-size="150px" font-family="Arial" >
3</text>
<text x="0" y="0" stroke="none" fill="#000000" transform="matrix(0.0666667 0 0 0.0666667 18.1636 100.033)" font-style="normal" font-weight="bold" font-size="200px" font-family="Arial" >
CO</text>
<path stroke="none" fill="#000000" transform="matrix(0.0666667 0 0 0.0666667 -278.967 -298)" d="M 4771.69,5845.51 L 4765.69,5835.12 L 4922.59,5744.54 L 4928.59,5748 L 4928.59,5754.93 L 4771.69,5845.51 Z " />
<text x="0" y="0" stroke="none" fill="#000000" transform="matrix(0.0666667 0 0 0.0666667 61.4189 42.4334)" font-style="normal" font-weight="bold" font-size="200px" font-family="Arial" >
Br</text>
<path stroke="none" fill="#000000" transform="matrix(0.0666667 0 0 0.0666667 -278.967 -298)" d="M 5172,5133.67 L 5184,5133.67 L 5184,5312.54 L 5178,5316 L 5172,5312.54 L 5172,5133.67 Z " />
<text x="0" y="0" stroke="none" fill="#000000" transform="matrix(0.0666667 0 0 0.0666667 134.048 114.833)" font-style="normal" font-weight="bold" font-size="200px" font-family="Arial" >
O</text>
<path stroke="none" fill="#000000" transform="matrix(0.0666667 0 0 0.0666667 -278.967 -298)" d="M 6304.92,6416.97 L 6292.92,6416.97 L 6292.92,6222.33 L 6304.92,6222.33 L 6304.92,6416.97 Z " />
<path stroke="none" fill="#000000" transform="matrix(0.0666667 0 0 0.0666667 -278.967 -298)" d="M 6253.08,6416.97 L 6241.08,6416.97 L 6241.08,6222.33 L 6253.08,6222.33 L 6253.08,6416.97 Z " />
<text x="0" y="0" stroke="none" fill="#000000" transform="matrix(0.0666667 0 0 0.0666667 150.676 143.633)" font-style="normal" font-weight="bold" font-size="200px" font-family="Arial" >
O</text>
<path stroke="none" fill="#000000" transform="matrix(0.0666667 0 0 0.0666667 -278.967 -298)" d="M 6436.44,6489.43 L 6430.44,6499.83 L 6273,6408.93 L 6273,6395.07 L 6436.44,6489.43 Z " />
<text x="0" y="0" stroke="none" fill="#000000" transform="matrix(0.0666667 0 0 0.0666667 104.085 143.633)" font-style="normal" font-weight="bold" font-size="200px" font-family="Arial" >
F</text>
<text x="0" y="0" stroke="none" fill="#000000" transform="matrix(0.0666667 0 0 0.0666667 112.23 146.5)" font-style="normal" font-weight="bold" font-size="150px" font-family="Arial" >
3</text>
<text x="0" y="0" stroke="none" fill="#000000" transform="matrix(0.0666667 0 0 0.0666667 117.791 143.633)" font-style="normal" font-weight="bold" font-size="200px" font-family="Arial" >
C</text>
<path stroke="none" fill="#000000" transform="matrix(0.0666667 0 0 0.0666667 -278.967 -298)" d="M 6115.03,6500.13 L 6109.03,6489.74 L 6273,6395.07 L 6273,6408.93 L 6115.03,6500.13 Z " />
<path stroke="#000000" stroke-width="10" fill="none" transform="matrix(0.0666667 0 0 0.0666667 -278.967 -298)" d="M 5857.5,5942.48 A 71.7999,71.7999 0 1 0 6001.1,5942.48A 71.7999,71.7999 0 1 0 5857.5,5942.48Z " />
<path stroke="none" fill="#000000" transform="matrix(0.0666667 0 0 0.0666667 -278.967 -298)" d="M 5889.63,5937.15 L 5968.3,5937.15 L 5968.3,5947.15 L 5889.63,5947.15 Z " />
<path stroke="none" fill="#000000" transform="matrix(0.0666667 0 0 0.0666667 -278.967 -298)" d="M 5933.96,5902.82 L 5933.96,5981.48 L 5923.96,5981.48 L 5923.96,5902.82 Z " />
<path stroke="#000000" stroke-width="10" fill="none" transform="matrix(0.0666667 0 0 0.0666667 -278.967 -298)" d="M 6615.84,6443.8 A 71.7999,71.7999 0 1 0 6759.44,6443.8A 71.7999,71.7999 0 1 0 6615.84,6443.8Z " />
<path stroke="none" fill="#000000" transform="matrix(0.0666667 0 0 0.0666667 -278.967 -298)" d="M 6647.97,6438.47 L 6726.64,6438.47 L 6726.64,6448.47 L 6647.97,6448.47 Z " />
</svg>