<svg width="184px" height="88px" viewBox="0 0 184 88" style="background-color: #ffffff00" xmlns="http://www.w3.org/2000/svg" xmlns:xlink="http://www.w3.org/1999/xlink" version="1.1" >
<path stroke="none" fill="#000000" transform="matrix(0.0666667 0 0 0.0666667 -326.967 -485)" d="M 5410.91,7556.66 L 5416.91,7553.2 L 5422.91,7556.66 L 5422.91,7836.74 L 5410.91,7843.66 L 5410.91,7556.66 Z " />
<path stroke="none" fill="#000000" transform="matrix(0.0666667 0 0 0.0666667 -326.967 -485)" d="M 5462.57,7583.03 L 5474.57,7583.03 L 5474.57,7810.37 L 5462.57,7810.37 L 5462.57,7583.03 Z " />
<path stroke="none" fill="#000000" transform="matrix(0.0666667 0 0 0.0666667 -326.967 -485)" d="M 5665.46,7402.77 L 5665.46,7416.63 L 5422.91,7556.66 L 5416.91,7553.2 L 5416.91,7546.27 L 5665.46,7402.77 Z " />
<path stroke="none" fill="#000000" transform="matrix(0.0666667 0 0 0.0666667 -326.967 -485)" d="M 5914.01,7546.27 L 5914.01,7553.2 L 5908.01,7556.66 L 5665.46,7416.63 L 5665.46,7402.77 L 5914.01,7546.27 Z " />
<path stroke="none" fill="#000000" transform="matrix(0.0666667 0 0 0.0666667 -326.967 -485)" d="M 5865.35,7577.83 L 5859.35,7588.22 L 5662.46,7474.55 L 5668.46,7464.15 L 5865.35,7577.83 Z " />
<path stroke="none" fill="#000000" transform="matrix(0.0666667 0 0 0.0666667 -326.967 -485)" d="M 5920.01,7836.74 L 5914.01,7840.2 L 5908.01,7836.74 L 5908.01,7556.66 L 5914.01,7553.2 L 5920.01,7556.66 L 5920.01,7836.74 Z " />
<path stroke="none" fill="#000000" transform="matrix(0.0666667 0 0 0.0666667 -326.967 -485)" d="M 5665.46,7990.63 L 5665.46,7976.77 L 5908.01,7836.74 L 5914.01,7840.2 L 5914.01,7847.13 L 5665.46,7990.63 Z " />
<path stroke="none" fill="#000000" transform="matrix(0.0666667 0 0 0.0666667 -326.967 -485)" d="M 5668.46,7929.24 L 5662.46,7918.85 L 5859.35,7805.18 L 5865.35,7815.57 L 5668.46,7929.24 Z " />
<path stroke="none" fill="#000000" transform="matrix(0.0666667 0 0 0.0666667 -326.967 -485)" d="M 5410.91,7843.66 L 5422.91,7836.74 L 5665.46,7976.77 L 5665.46,7990.63 L 5410.91,7843.66 Z " />
<text x="0" y="0" stroke="none" fill="#000000" transform="matrix(0.0666667 0 0 0.0666667 78.6848 14.2133)" font-style="normal" font-weight="bold" font-size="200px" font-family="Arial" >
O</text>
<path stroke="none" fill="#000000" transform="matrix(0.0666667 0 0 0.0666667 -326.967 -485)" d="M 6067.81,7457.47 L 6073.81,7467.87 L 5920.01,7556.66 L 5914.01,7553.2 L 5914.01,7546.27 L 6067.81,7457.47 Z " />
<path stroke="none" fill="#000000" transform="matrix(0.0666667 0 0 0.0666667 -326.967 -485)" d="M 6417.1,7549.74 L 6405.1,7556.66 L 6251.74,7468.12 L 6257.74,7457.73 L 6417.1,7549.74 Z " />
<path stroke="none" fill="#000000" transform="matrix(0.0666667 0 0 0.0666667 -326.967 -485)" d="M 6417.1,7836.74 L 6411.1,7840.2 L 6405.1,7836.74 L 6405.1,7556.66 L 6417.1,7549.74 L 6417.1,7836.74 Z " />
<path stroke="none" fill="#000000" transform="matrix(0.0666667 0 0 0.0666667 -326.967 -485)" d="M 6162.55,7990.63 L 6162.55,7976.77 L 6405.1,7836.74 L 6411.1,7840.2 L 6411.1,7847.13 L 6162.55,7990.63 Z " />
<path stroke="none" fill="#000000" transform="matrix(0.0666667 0 0 0.0666667 -326.967 -485)" d="M 6165.55,7929.24 L 6159.55,7918.85 L 6356.44,7805.18 L 6362.44,7815.57 L 6165.55,7929.24 Z " />
<path stroke="none" fill="#000000" transform="matrix(0.0666667 0 0 0.0666667 -326.967 -485)" d="M 5914.01,7847.13 L 5914.01,7840.2 L 5920.01,7836.74 L 6162.55,7976.77 L 6162.55,7990.63 L 5914.01,7847.13 Z " />
<text x="0" y="0" stroke="none" fill="#000000" transform="matrix(0.0666667 0 0 0.0666667 111.825 14.2133)" font-style="normal" font-weight="bold" font-size="200px" font-family="Arial" >
O</text>
<path stroke="none" fill="#000000" transform="matrix(0.0666667 0 0 0.0666667 -326.967 -485)" d="M 6551.99,7435.1 L 6557.99,7445.5 L 6388.27,7543.48 L 6382.27,7533.09 L 6551.99,7435.1 Z " />
<path stroke="none" fill="#000000" transform="matrix(0.0666667 0 0 0.0666667 -326.967 -485)" d="M 6577.82,7479.84 L 6583.82,7490.23 L 6414.1,7588.22 L 6408.1,7577.83 L 6577.82,7479.84 Z " />
<path stroke="none" fill="#000000" transform="matrix(0.0666667 0 0 0.0666667 -326.967 -485)" d="M 6659.65,7976.77 L 6659.65,7990.63 L 6411.1,7847.13 L 6411.1,7840.2 L 6417.1,7836.74 L 6659.65,7976.77 Z " />
<text x="0" y="0" stroke="none" fill="#000000" transform="matrix(0.0666667 0 0 0.0666667 128.395 42.9133)" font-style="normal" font-weight="bold" font-size="200px" font-family="Arial" >
O</text>
<path stroke="none" fill="#000000" transform="matrix(0.0666667 0 0 0.0666667 -326.967 -485)" d="M 6813.46,7887.97 L 6819.46,7898.37 L 6659.65,7990.63 L 6659.65,7976.77 L 6813.46,7887.97 Z " />
<text x="0" y="0" stroke="none" fill="#000000" transform="matrix(0.0666667 0 0 0.0666667 111.825 71.6133)" font-style="normal" font-weight="bold" font-size="200px" font-family="Arial" >
O</text>
<path stroke="none" fill="#000000" transform="matrix(0.0666667 0 0 0.0666667 -326.967 -485)" d="M 6691.48,8168.03 L 6679.48,8168.03 L 6679.48,7968.79 L 6691.48,7968.79 L 6691.48,8168.03 Z " />
<path stroke="none" fill="#000000" transform="matrix(0.0666667 0 0 0.0666667 -326.967 -485)" d="M 6639.82,8168.03 L 6627.82,8168.03 L 6627.82,7968.79 L 6639.82,7968.79 L 6639.82,8168.03 Z " />
<text x="0" y="0" stroke="none" fill="#000000" transform="matrix(0.0666667 0 0 0.0666667 145.336 52.4799)" font-style="normal" font-weight="bold" font-size="200px" font-family="Arial" >
N</text>
<path stroke="none" fill="#000000" transform="matrix(0.0666667 0 0 0.0666667 -326.967 -485)" d="M 7059.54,7920.64 L 7053.54,7931.04 L 6997.39,7898.62 L 7003.39,7888.23 L 7059.54,7920.64 Z " />
<path stroke="none" fill="#000000" transform="matrix(0.0666667 0 0 0.0666667 -326.967 -485)" d="M 7192.26,8264.16 L 7181.24,8274.09 L 7161.79,8089.01 L 7173.72,8087.76 L 7192.26,8264.16 Z " />
<path stroke="none" fill="#000000" transform="matrix(0.0666667 0 0 0.0666667 -326.967 -485)" d="M 7464.46,8322.02 L 7470.5,8335.57 L 7181.24,8274.09 L 7192.26,8264.16 L 7464.46,8322.02 Z " />
<path stroke="none" fill="#000000" transform="matrix(0.0666667 0 0 0.0666667 -326.967 -485)" d="M 7603.6,8081.02 L 7618.36,8079.47 L 7470.5,8335.57 L 7464.46,8322.02 L 7603.6,8081.02 Z " />
<path stroke="none" fill="#000000" transform="matrix(0.0666667 0 0 0.0666667 -326.967 -485)" d="M 7417.4,7874.22 L 7420.48,7859.71 L 7618.36,8079.47 L 7603.6,8081.02 L 7417.4,7874.22 Z " />
<path stroke="none" fill="#000000" transform="matrix(0.0666667 0 0 0.0666667 -326.967 -485)" d="M 7259.63,7944.46 L 7254.75,7933.5 L 7420.48,7859.71 L 7417.4,7874.22 L 7259.63,7944.46 Z " />
<text x="0" y="0" stroke="none" fill="#000000" transform="matrix(0.0666667 0 0 0.0666667 166.422 25.9825)" font-style="normal" font-weight="bold" font-size="200px" font-family="Arial" >
O</text>
<path stroke="none" fill="#000000" transform="matrix(0.0666667 0 0 0.0666667 -326.967 -485)" d="M 7424.78,7686.41 L 7436.51,7688.91 L 7395.64,7881.2 L 7383.9,7878.7 L 7424.78,7686.41 Z " />
<path stroke="none" fill="#000000" transform="matrix(0.0666667 0 0 0.0666667 -326.967 -485)" d="M 7475.31,7697.15 L 7487.05,7699.65 L 7446.17,7891.94 L 7434.43,7889.45 L 7475.31,7697.15 Z " />
<text x="0" y="0" stroke="none" fill="#000000" transform="matrix(0.0666667 0 0 0.0666667 132.746 84.3112)" font-style="normal" font-weight="bold" font-size="200px" font-family="Arial" >
O</text>
<path stroke="none" fill="#000000" transform="matrix(0.0666667 0 0 0.0666667 -326.967 -485)" d="M 7072.08,8415.21 L 7064.05,8406.29 L 7213.97,8271.31 L 7222,8280.22 L 7072.08,8415.21 Z " />
<path stroke="none" fill="#000000" transform="matrix(0.0666667 0 0 0.0666667 -326.967 -485)" d="M 7037.52,8376.82 L 7029.49,8367.9 L 7179.4,8232.92 L 7187.43,8241.83 L 7037.52,8376.82 Z " />
<text x="0" y="0" stroke="none" fill="#000000" transform="matrix(0.0666667 0 0 0.0666667 2.77605 14.2133)" font-style="normal" font-weight="bold" font-size="200px" font-family="Arial" >
HO</text>
<path stroke="none" fill="#000000" transform="matrix(0.0666667 0 0 0.0666667 -326.967 -485)" d="M 5257.65,7468.18 L 5263.65,7457.79 L 5416.91,7546.27 L 5416.91,7553.2 L 5410.91,7556.66 L 5257.65,7468.18 Z " />
</svg>