<svg width="108px" height="89px" viewBox="0 0 108 89" style="background-color: #ffffff00" xmlns="http://www.w3.org/2000/svg" xmlns:xlink="http://www.w3.org/1999/xlink" version="1.1" >
<path stroke="none" fill="#000000" transform="matrix(0.0666667 0 0 0.0666667 -307.967 -365)" d="M 5720.22,6035.67 L 5720.22,6049.53 L 5470.8,5905.53 L 5470.8,5891.67 L 5720.22,6035.67 Z " />
<text x="0" y="0" stroke="none" fill="#000000" transform="matrix(0.0666667 0 0 0.0666667 51.5679 14.2734)" font-style="normal" font-weight="bold" font-size="200px" font-family="Arial" >
OH</text>
<path stroke="#000000" stroke-width="12" fill="none" transform="matrix(0.0666667 0 0 0.0666667 -307.967 -365)" d="M 5470.8,5898.6 C 5481.84,5898.6 5490.8,5890.54 5490.8,5880.6 C 5490.8,5870.67 5481.84,5862.61 5470.8,5862.61 C 5459.76,5862.61 5450.8,5854.54 5450.8,5844.61 C 5450.8,5834.68 5459.76,5826.61 5470.8,5826.61 C 5481.84,5826.61 5490.8,5818.55 5490.8,5808.62 C 5490.8,5798.68 5481.84,5790.62 5470.8,5790.62 C 5459.76,5790.62 5450.8,5782.56 5450.8,5772.62 C 5450.8,5762.69 5459.76,5754.63 5470.8,5754.63 C 5481.84,5754.63 5490.8,5746.56 5490.8,5736.63 " />
<text x="0" y="0" stroke="none" fill="#000000" transform="matrix(0.0666667 0 0 0.0666667 84.8232 33.4734)" font-style="normal" font-weight="bold" font-size="200px" font-family="Arial" >
OH</text>
<path stroke="none" fill="#000000" transform="matrix(0.0666667 0 0 0.0666667 -307.967 -365)" d="M 5874.88,5946.37 L 5880.88,5956.77 L 5720.22,6049.53 L 5720.22,6035.67 L 5874.88,5946.37 Z " />
<text x="0" y="0" stroke="none" fill="#000000" transform="matrix(0.0666667 0 0 0.0666667 68.1955 62.2734)" font-style="normal" font-weight="bold" font-size="200px" font-family="Arial" >
O</text>
<path stroke="none" fill="#000000" transform="matrix(0.0666667 0 0 0.0666667 -307.967 -365)" d="M 5752.14,6227.93 L 5740.14,6227.93 L 5740.14,6027.64 L 5752.14,6027.64 L 5752.14,6227.93 Z " />
<path stroke="none" fill="#000000" transform="matrix(0.0666667 0 0 0.0666667 -307.967 -365)" d="M 5700.3,6227.93 L 5688.3,6227.93 L 5688.3,6027.64 L 5700.3,6027.64 L 5700.3,6227.93 Z " />
<path stroke="none" fill="#000000" transform="matrix(0.0666667 0 0 0.0666667 -307.967 -365)" d="M 5221.39,6049.53 L 5221.39,6035.67 L 5470.8,5891.67 L 5470.8,5905.53 L 5221.39,6049.53 Z " />
<path stroke="none" fill="#000000" transform="matrix(0.0666667 0 0 0.0666667 -307.967 -365)" d="M 5251.39,6280.43 L 5191.39,6280.43 L 5192.92,6268.43 L 5249.85,6268.43 L 5251.39,6280.43 Z " />
<path stroke="none" fill="#000000" transform="matrix(0.0666667 0 0 0.0666667 -307.967 -365)" d="M 5243.9,6221.88 L 5198.87,6221.88 L 5200.41,6209.88 L 5242.36,6209.88 L 5243.9,6221.88 Z " />
<path stroke="none" fill="#000000" transform="matrix(0.0666667 0 0 0.0666667 -307.967 -365)" d="M 5236.41,6163.32 L 5206.36,6163.32 L 5207.9,6151.33 L 5234.87,6151.33 L 5236.41,6163.32 Z " />
<path stroke="none" fill="#000000" transform="matrix(0.0666667 0 0 0.0666667 -307.967 -365)" d="M 5228.92,6104.77 L 5213.85,6104.77 L 5215.39,6092.77 L 5227.39,6092.77 L 5228.92,6104.77 Z " />
<text x="0" y="0" stroke="none" fill="#000000" transform="matrix(0.0666667 0 0 0.0666667 3.49315 33.4734)" font-style="normal" font-weight="bold" font-size="200px" font-family="Arial" >
H</text>
<text x="0" y="0" stroke="none" fill="#000000" transform="matrix(0.0666667 0 0 0.0666667 13.1221 36.34)" font-style="normal" font-weight="bold" font-size="150px" font-family="Arial" >
2</text>
<text x="0" y="0" stroke="none" fill="#000000" transform="matrix(0.0666667 0 0 0.0666667 18.6836 33.4734)" font-style="normal" font-weight="bold" font-size="200px" font-family="Arial" >
N</text>
<path stroke="none" fill="#000000" transform="matrix(0.0666667 0 0 0.0666667 -307.967 -365)" d="M 5070.53,5962.43 L 5076.53,5952.04 L 5221.39,6035.67 L 5221.39,6049.53 L 5070.53,5962.43 Z " />
<path stroke="none" fill="#000000" transform="matrix(0.0666667 0 0 0.0666667 -307.967 -365)" d="M 4977.97,6478.06 L 4971.97,6474.6 L 4971.97,6467.67 L 5218.39,6325.4 L 5224.39,6335.8 L 4977.97,6478.06 Z " />
<path stroke="none" fill="#000000" transform="matrix(0.0666667 0 0 0.0666667 -307.967 -365)" d="M 4719.56,6335.8 L 4725.56,6325.4 L 4971.97,6467.67 L 4971.97,6474.6 L 4965.97,6478.06 L 4719.56,6335.8 Z " />
<path stroke="none" fill="#000000" transform="matrix(0.0666667 0 0 0.0666667 -307.967 -365)" d="M 4977.97,6762.6 L 4965.97,6762.6 L 4965.97,6478.06 L 4971.97,6474.6 L 4977.97,6478.06 L 4977.97,6762.6 Z " />
<text x="0" y="0" stroke="none" fill="#000000" transform="matrix(0.0666667 0 0 0.0666667 7.97894 15.2334)" font-style="normal" font-weight="bold" font-size="200px" font-family="Arial" >
HCl</text>
</svg>