<svg width="82px" height="128px" viewBox="0 0 82 128" style="background-color: #ffffff00" xmlns="http://www.w3.org/2000/svg" xmlns:xlink="http://www.w3.org/1999/xlink" version="1.1" >
<path stroke="none" fill="#000000" transform="matrix(0.0666667 0 0 0.0666667 -438.967 -433)" d="M 6705.53,7352.79 L 6693.53,7359.72 L 6693.53,7065.79 L 6705.53,7072.72 L 6705.53,7352.79 Z " />
<path stroke="none" fill="#000000" transform="matrix(0.0666667 0 0 0.0666667 -438.967 -433)" d="M 6757.19,7326.43 L 6745.19,7326.43 L 6745.19,7099.08 L 6757.19,7099.08 L 6757.19,7326.43 Z " />
<path stroke="none" fill="#000000" transform="matrix(0.0666667 0 0 0.0666667 -438.967 -433)" d="M 6948.08,7492.83 L 6948.08,7506.68 L 6693.53,7359.72 L 6705.53,7352.79 L 6948.08,7492.83 Z " />
<path stroke="none" fill="#000000" transform="matrix(0.0666667 0 0 0.0666667 -438.967 -433)" d="M 7190.63,7352.79 L 7196.63,7356.26 L 7196.63,7363.18 L 6948.08,7506.68 L 6948.08,7492.83 L 7190.63,7352.79 Z " />
<path stroke="none" fill="#000000" transform="matrix(0.0666667 0 0 0.0666667 -438.967 -433)" d="M 7141.97,7321.23 L 7147.97,7331.63 L 6951.08,7445.3 L 6945.08,7434.91 L 7141.97,7321.23 Z " />
<path stroke="none" fill="#000000" transform="matrix(0.0666667 0 0 0.0666667 -438.967 -433)" d="M 7190.63,7072.72 L 7196.63,7069.26 L 7202.63,7072.72 L 7202.63,7352.79 L 7196.63,7356.26 L 7190.63,7352.79 L 7190.63,7072.72 Z " />
<path stroke="none" fill="#000000" transform="matrix(0.0666667 0 0 0.0666667 -438.967 -433)" d="M 6948.08,6932.68 L 6948.08,6918.83 L 7196.63,7062.33 L 7196.63,7069.26 L 7190.63,7072.72 L 6948.08,6932.68 Z " />
<path stroke="none" fill="#000000" transform="matrix(0.0666667 0 0 0.0666667 -438.967 -433)" d="M 6945.08,6990.6 L 6951.08,6980.21 L 7147.97,7093.89 L 7141.97,7104.28 L 6945.08,6990.6 Z " />
<path stroke="none" fill="#000000" transform="matrix(0.0666667 0 0 0.0666667 -438.967 -433)" d="M 6705.53,7072.72 L 6693.53,7065.79 L 6948.08,6918.83 L 6948.08,6932.68 L 6705.53,7072.72 Z " />
<text x="0" y="0" stroke="none" fill="#000000" transform="matrix(0.0666667 0 0 0.0666667 69.1343 62.6504)" font-style="normal" font-weight="bold" font-size="200px" font-family="Arial" >
N</text>
<text x="0" y="0" stroke="none" fill="#000000" transform="matrix(0.0666667 0 0 0.0666667 69.1343 43.5171)" font-style="normal" font-weight="bold" font-size="200px" font-family="Arial" >
N</text>
<path stroke="none" fill="#000000" transform="matrix(0.0666667 0 0 0.0666667 -438.967 -433)" d="M 7445.18,7492.83 L 7445.18,7499.76 L 7439.18,7503.22 L 7196.63,7363.18 L 7196.63,7356.26 L 7202.63,7352.79 L 7445.18,7492.83 Z " />
<path stroke="none" fill="#000000" transform="matrix(0.0666667 0 0 0.0666667 -438.967 -433)" d="M 7588.21,7410.25 L 7594.21,7420.64 L 7451.18,7503.22 L 7445.18,7499.76 L 7445.18,7492.83 L 7588.21,7410.25 Z " />
<path stroke="none" fill="#000000" transform="matrix(0.0666667 0 0 0.0666667 -438.967 -433)" d="M 7562.38,7365.51 L 7568.38,7375.91 L 7448.18,7445.3 L 7442.18,7434.91 L 7562.38,7365.51 Z " />
<path stroke="none" fill="#000000" transform="matrix(0.0666667 0 0 0.0666667 -438.967 -433)" d="M 7687.73,7174.92 L 7699.73,7174.92 L 7699.73,7255.92 L 7687.73,7255.92 L 7687.73,7174.92 Z " />
<path stroke="none" fill="#000000" transform="matrix(0.0666667 0 0 0.0666667 -438.967 -433)" d="M 7445.18,6932.68 L 7445.18,6925.76 L 7451.18,6922.29 L 7596.52,7006.2 L 7590.52,7016.59 L 7445.18,6932.68 Z " />
<path stroke="none" fill="#000000" transform="matrix(0.0666667 0 0 0.0666667 -438.967 -433)" d="M 7442.18,6990.6 L 7448.18,6980.21 L 7570.69,7050.94 L 7564.69,7061.33 L 7442.18,6990.6 Z " />
<path stroke="none" fill="#000000" transform="matrix(0.0666667 0 0 0.0666667 -438.967 -433)" d="M 7202.63,7072.72 L 7196.63,7069.26 L 7196.63,7062.33 L 7439.18,6922.29 L 7445.18,6925.76 L 7445.18,6932.68 L 7202.63,7072.72 Z " />
<text x="0" y="0" stroke="none" fill="#000000" transform="matrix(0.0666667 0 0 0.0666667 52.5643 14.8171)" font-style="normal" font-weight="bold" font-size="200px" font-family="Arial" >
Cl</text>
<path stroke="none" fill="#000000" transform="matrix(0.0666667 0 0 0.0666667 -438.967 -433)" d="M 7439.18,6747.09 L 7451.18,6747.09 L 7451.18,6922.29 L 7445.18,6925.76 L 7439.18,6922.29 L 7439.18,6747.09 Z " />
<path stroke="none" fill="#000000" transform="matrix(0.0666667 0 0 0.0666667 -438.967 -433)" d="M 7451.18,7790.22 L 7439.18,7783.29 L 7439.18,7503.22 L 7445.18,7499.76 L 7451.18,7503.22 L 7451.18,7790.22 Z " />
<path stroke="none" fill="#000000" transform="matrix(0.0666667 0 0 0.0666667 -438.967 -433)" d="M 7202.63,7933.72 L 7196.63,7930.26 L 7196.63,7923.33 L 7439.18,7783.29 L 7451.18,7790.22 L 7202.63,7933.72 Z " />
<text x="0" y="0" stroke="none" fill="#000000" transform="matrix(0.0666667 0 0 0.0666667 2.85448 120.05)" font-style="normal" font-weight="bold" font-size="200px" font-family="Arial" >
N</text>
<path stroke="none" fill="#000000" transform="matrix(0.0666667 0 0 0.0666667 -438.967 -433)" d="M 6948.08,7793.68 L 6948.08,7779.83 L 7196.63,7923.33 L 7196.63,7930.26 L 7190.63,7933.72 L 6948.08,7793.68 Z " />
<path stroke="none" fill="#000000" transform="matrix(0.0666667 0 0 0.0666667 -438.967 -433)" d="M 6945.08,7851.6 L 6951.08,7841.21 L 7147.97,7954.89 L 7141.97,7965.28 L 6945.08,7851.6 Z " />
<path stroke="none" fill="#000000" transform="matrix(0.0666667 0 0 0.0666667 -438.967 -433)" d="M 6705.53,7933.72 L 6693.53,7926.79 L 6948.08,7779.83 L 6948.08,7793.68 L 6705.53,7933.72 Z " />
<path stroke="none" fill="#000000" transform="matrix(0.0666667 0 0 0.0666667 -438.967 -433)" d="M 6705.53,8116.92 L 6693.53,8116.92 L 6693.53,7926.79 L 6705.53,7933.72 L 6705.53,8116.92 Z " />
<path stroke="none" fill="#000000" transform="matrix(0.0666667 0 0 0.0666667 -438.967 -433)" d="M 6757.19,8116.92 L 6745.19,8116.92 L 6745.19,7960.08 L 6757.19,7960.08 L 6757.19,8116.92 Z " />
<path stroke="none" fill="#000000" transform="matrix(0.0666667 0 0 0.0666667 -438.967 -433)" d="M 6948.08,8353.83 L 6948.08,8367.68 L 6797.98,8281.02 L 6803.98,8270.63 L 6948.08,8353.83 Z " />
<path stroke="none" fill="#000000" transform="matrix(0.0666667 0 0 0.0666667 -438.967 -433)" d="M 7190.63,8213.79 L 7202.63,8220.72 L 6948.08,8367.68 L 6948.08,8353.83 L 7190.63,8213.79 Z " />
<path stroke="none" fill="#000000" transform="matrix(0.0666667 0 0 0.0666667 -438.967 -433)" d="M 7141.97,8182.23 L 7147.97,8192.63 L 6951.08,8306.3 L 6945.08,8295.91 L 7141.97,8182.23 Z " />
<path stroke="none" fill="#000000" transform="matrix(0.0666667 0 0 0.0666667 -438.967 -433)" d="M 7190.63,7933.72 L 7196.63,7930.26 L 7202.63,7933.72 L 7202.63,8220.72 L 7190.63,8213.79 L 7190.63,7933.72 Z " />
</svg>