<svg width="226px" height="96px" viewBox="0 0 226 96" style="background-color: #ffffff00" xmlns="http://www.w3.org/2000/svg" xmlns:xlink="http://www.w3.org/1999/xlink" version="1.1" >
<text x="0" y="0" stroke="none" fill="#000000" transform="matrix(0.0666667 0 0 0.0666667 3.38073 73.4334)" font-style="normal" font-weight="bold" font-size="200px" font-family="Arial" >
HO</text>
<path stroke="none" fill="#000000" transform="matrix(0.0666667 0 0 0.0666667 -210.967 -103)" d="M 3685.98,2417.57 L 3685.98,2431.43 L 3529.84,2521.58 L 3523.84,2511.18 L 3685.98,2417.57 Z " />
<path stroke="none" fill="#000000" transform="matrix(0.0666667 0 0 0.0666667 -210.967 -103)" d="M 3934.53,2561.07 L 3934.53,2574.93 L 3685.98,2431.43 L 3685.98,2417.57 L 3934.53,2561.07 Z " />
<text x="0" y="0" stroke="none" fill="#000000" transform="matrix(0.0666667 0 0 0.0666667 29.5796 44.7334)" font-style="normal" font-weight="bold" font-size="200px" font-family="Arial" >
O</text>
<path stroke="none" fill="#000000" transform="matrix(0.0666667 0 0 0.0666667 -210.967 -103)" d="M 3654.15,2245.83 L 3666.15,2245.83 L 3666.15,2439.41 L 3654.15,2439.41 L 3654.15,2245.83 Z " />
<path stroke="none" fill="#000000" transform="matrix(0.0666667 0 0 0.0666667 -210.967 -103)" d="M 3705.81,2245.83 L 3717.81,2245.83 L 3717.81,2439.41 L 3705.81,2439.41 L 3705.81,2245.83 Z " />
<path stroke="none" fill="#000000" transform="matrix(0.0666667 0 0 0.0666667 -210.967 -103)" d="M 4183.08,2417.57 L 4183.08,2431.43 L 3934.53,2574.93 L 3934.53,2561.07 L 4183.08,2417.57 Z " />
<path stroke="none" fill="#000000" transform="matrix(0.0666667 0 0 0.0666667 -210.967 -103)" d="M 4431.62,2561.07 L 4431.62,2574.93 L 4183.08,2431.43 L 4183.08,2417.57 L 4431.62,2561.07 Z " />
<text x="0" y="0" stroke="none" fill="#000000" transform="matrix(0.0666667 0 0 0.0666667 96.2305 52.7445)" font-style="normal" font-weight="bold" font-size="200px" font-family="Arial" >
H</text>
<text x="0" y="0" stroke="none" fill="#000000" transform="matrix(0.0666667 0 0 0.0666667 96.2305 63.8667)" font-style="normal" font-weight="bold" font-size="200px" font-family="Arial" >
N</text>
<path stroke="none" fill="#000000" transform="matrix(0.0666667 0 0 0.0666667 -210.967 -103)" d="M 4574.58,2478.54 L 4580.58,2488.93 L 4431.62,2574.93 L 4431.62,2561.07 L 4574.58,2478.54 Z " />
<path stroke="none" fill="#000000" transform="matrix(0.0666667 0 0 0.0666667 -210.967 -103)" d="M 4928.72,2561.07 L 4928.72,2574.93 L 4778.7,2488.31 L 4784.7,2477.92 L 4928.72,2561.07 Z " />
<text x="0" y="0" stroke="none" fill="#000000" transform="matrix(0.0666667 0 0 0.0666667 128.999 63.8667)" font-style="normal" font-weight="bold" font-size="200px" font-family="Arial" >
O</text>
<path stroke="none" fill="#000000" transform="matrix(0.0666667 0 0 0.0666667 -210.967 -103)" d="M 5082.53,2472.28 L 5088.53,2482.67 L 4928.72,2574.93 L 4928.72,2561.07 L 5082.53,2472.28 Z " />
<text x="0" y="0" stroke="none" fill="#000000" transform="matrix(0.0666667 0 0 0.0666667 112.429 92.5667)" font-style="normal" font-weight="bold" font-size="200px" font-family="Arial" >
O</text>
<path stroke="none" fill="#000000" transform="matrix(0.0666667 0 0 0.0666667 -210.967 -103)" d="M 4960.55,2752.33 L 4948.55,2752.33 L 4948.55,2553.09 L 4960.55,2553.09 L 4960.55,2752.33 Z " />
<path stroke="none" fill="#000000" transform="matrix(0.0666667 0 0 0.0666667 -210.967 -103)" d="M 4908.89,2752.33 L 4896.89,2752.33 L 4896.89,2553.09 L 4908.89,2553.09 L 4908.89,2752.33 Z " />
<path stroke="none" fill="#000000" transform="matrix(0.0666667 0 0 0.0666667 -210.967 -103)" d="M 5425.82,2561.07 L 5425.82,2574.93 L 5266.46,2482.92 L 5272.46,2472.53 L 5425.82,2561.07 Z " />
<path stroke="none" fill="#000000" transform="matrix(0.0666667 0 0 0.0666667 -210.967 -103)" d="M 5668.72,2420.83 L 5674.37,2424.5 L 5674.72,2431.23 L 5425.82,2574.93 L 5425.82,2561.07 L 5668.72,2420.83 Z " />
<path stroke="none" fill="#000000" transform="matrix(0.0666667 0 0 0.0666667 -210.967 -103)" d="M 5935.02,2533.98 L 5936.56,2541.23 L 5931.68,2545.63 L 5674.72,2431.23 L 5674.37,2424.5 L 5680.79,2420.79 L 5935.02,2533.98 Z " />
<path stroke="none" fill="#000000" transform="matrix(0.0666667 0 0 0.0666667 -210.967 -103)" d="M 6121.22,2327.18 L 6128.6,2327.95 L 6130.74,2334.54 L 5943.34,2542.67 L 5936.56,2541.23 L 5935.02,2533.98 L 6121.22,2327.18 Z " />
<path stroke="none" fill="#000000" transform="matrix(0.0666667 0 0 0.0666667 -210.967 -103)" d="M 6142.57,2380.67 L 6151.49,2388.7 L 5999.37,2557.65 L 5990.45,2549.62 L 6142.57,2380.67 Z " />
<path stroke="none" fill="#000000" transform="matrix(0.0666667 0 0 0.0666667 -210.967 -103)" d="M 5982.08,2086.18 L 5985.1,2079.4 L 5991.63,2078.72 L 6132.46,2322.64 L 6128.6,2327.95 L 6121.22,2327.18 L 5982.08,2086.18 Z " />
<path stroke="none" fill="#000000" transform="matrix(0.0666667 0 0 0.0666667 -210.967 -103)" d="M 5709.88,2144.04 L 5704.37,2139.07 L 5706.51,2132.48 L 5980.46,2074.25 L 5985.1,2079.4 L 5982.08,2086.18 L 5709.88,2144.04 Z " />
<path stroke="none" fill="#000000" transform="matrix(0.0666667 0 0 0.0666667 -210.967 -103)" d="M 5724.05,2088.21 L 5721.56,2076.47 L 5943.94,2029.2 L 5946.43,2040.94 L 5724.05,2088.21 Z " />
<path stroke="none" fill="#000000" transform="matrix(0.0666667 0 0 0.0666667 -210.967 -103)" d="M 5680.79,2420.79 L 5674.37,2424.5 L 5668.72,2420.83 L 5698.13,2141.1 L 5704.37,2139.07 L 5709.88,2144.04 L 5680.79,2420.79 Z " />
<path stroke="none" fill="#000000" transform="matrix(0.0666667 0 0 0.0666667 -210.967 -103)" d="M 6029.88,2809.04 L 6020.61,2819.34 L 5931.68,2545.63 L 5936.56,2541.23 L 5943.34,2542.67 L 6029.88,2809.04 Z " />
<path stroke="none" fill="#000000" transform="matrix(0.0666667 0 0 0.0666667 -210.967 -103)" d="M 6303.83,2867.27 L 6308.12,2880.45 L 6020.61,2819.34 L 6029.88,2809.04 L 6303.83,2867.27 Z " />
<path stroke="none" fill="#000000" transform="matrix(0.0666667 0 0 0.0666667 -210.967 -103)" d="M 6288.79,2811.26 L 6286.29,2822.99 L 6063.91,2775.73 L 6066.41,2763.99 L 6288.79,2811.26 Z " />
<path stroke="none" fill="#000000" transform="matrix(0.0666667 0 0 0.0666667 -210.967 -103)" d="M 6491.24,2659.14 L 6504.79,2662.02 L 6308.12,2880.45 L 6303.83,2867.27 L 6491.24,2659.14 Z " />
<path stroke="none" fill="#000000" transform="matrix(0.0666667 0 0 0.0666667 -210.967 -103)" d="M 6404.69,2392.77 L 6413.96,2382.47 L 6504.79,2662.02 L 6491.24,2659.14 L 6404.69,2392.77 Z " />
<path stroke="none" fill="#000000" transform="matrix(0.0666667 0 0 0.0666667 -210.967 -103)" d="M 6363.71,2433.81 L 6375.12,2430.1 L 6445.37,2646.32 L 6433.96,2650.03 L 6363.71,2433.81 Z " />
<path stroke="none" fill="#000000" transform="matrix(0.0666667 0 0 0.0666667 -210.967 -103)" d="M 6130.74,2334.54 L 6128.6,2327.95 L 6132.46,2322.64 L 6413.96,2382.47 L 6404.69,2392.77 L 6130.74,2334.54 Z " />
<path stroke="none" fill="#000000" transform="matrix(0.0666667 0 0 0.0666667 -210.967 -103)" d="M 6067.01,1807.89 L 6080.56,1805.01 L 5991.63,2078.72 L 5985.1,2079.4 L 5980.46,2074.25 L 6067.01,1807.89 Z " />
<path stroke="none" fill="#000000" transform="matrix(0.0666667 0 0 0.0666667 -210.967 -103)" d="M 5879.61,1599.76 L 5883.89,1586.58 L 6080.56,1805.01 L 6067.01,1807.89 L 5879.61,1599.76 Z " />
<path stroke="none" fill="#000000" transform="matrix(0.0666667 0 0 0.0666667 -210.967 -103)" d="M 5858.85,1653.91 L 5867.77,1645.88 L 6019.9,1814.84 L 6010.98,1822.87 L 5858.85,1653.91 Z " />
<path stroke="none" fill="#000000" transform="matrix(0.0666667 0 0 0.0666667 -210.967 -103)" d="M 5605.65,1657.99 L 5596.38,1647.69 L 5883.89,1586.58 L 5879.61,1599.76 L 5605.65,1657.99 Z " />
<path stroke="none" fill="#000000" transform="matrix(0.0666667 0 0 0.0666667 -210.967 -103)" d="M 5519.11,1924.35 L 5505.55,1927.23 L 5596.38,1647.69 L 5605.65,1657.99 L 5519.11,1924.35 Z " />
<path stroke="none" fill="#000000" transform="matrix(0.0666667 0 0 0.0666667 -210.967 -103)" d="M 5576.39,1915.24 L 5564.97,1911.53 L 5635.23,1695.31 L 5646.64,1699.02 L 5576.39,1915.24 Z " />
<path stroke="none" fill="#000000" transform="matrix(0.0666667 0 0 0.0666667 -210.967 -103)" d="M 5706.51,2132.48 L 5704.37,2139.07 L 5698.13,2141.1 L 5505.55,1927.23 L 5519.11,1924.35 L 5706.51,2132.48 Z " />
</svg>