<svg width="123px" height="65px" viewBox="0 0 123 65" style="background-color: #ffffff00" xmlns="http://www.w3.org/2000/svg" xmlns:xlink="http://www.w3.org/1999/xlink" version="1.1" >
<path stroke="none" fill="#000000" transform="matrix(0.0666667 0 0 0.0666667 -397.967 -490)" d="M 6693.82,7767.51 L 6693.96,7781.36 L 6446.86,7927.36 L 6446.72,7913.5 L 6693.82,7767.51 Z " />
<text x="0" y="0" stroke="none" fill="#000000" transform="matrix(0.0666667 0 0 0.0666667 42.9145 14.3966)" font-style="normal" font-weight="bold" font-size="200px" font-family="Arial" >
O</text>
<path stroke="none" fill="#000000" transform="matrix(0.0666667 0 0 0.0666667 -397.967 -490)" d="M 6660.26,7596.09 L 6672.26,7595.97 L 6674.21,7789.55 L 6662.21,7789.67 L 6660.26,7596.09 Z " />
<path stroke="none" fill="#000000" transform="matrix(0.0666667 0 0 0.0666667 -397.967 -490)" d="M 6711.92,7595.57 L 6723.92,7595.45 L 6725.87,7789.03 L 6713.87,7789.15 L 6711.92,7595.57 Z " />
<text x="0" y="0" stroke="none" fill="#000000" transform="matrix(0.0666667 0 0 0.0666667 60.1434 42.9285)" font-style="normal" font-weight="bold" font-size="200px" font-family="Arial" >
N</text>
<text x="0" y="0" stroke="none" fill="#000000" transform="matrix(0.0666667 0 0 0.0666667 60.1434 54.0507)" font-style="normal" font-weight="bold" font-size="200px" font-family="Arial" >
H</text>
<path stroke="none" fill="#000000" transform="matrix(0.0666667 0 0 0.0666667 -397.967 -490)" d="M 6846.3,7853.51 L 6840.4,7863.96 L 6693.96,7781.36 L 6693.82,7767.51 L 6846.3,7853.51 Z " />
<text x="0" y="0" stroke="none" fill="#000000" transform="matrix(0.0666667 0 0 0.0666667 2.93095 33.8624)" font-style="normal" font-weight="bold" font-size="200px" font-family="Arial" >
Br</text>
<path stroke="none" fill="#000000" transform="matrix(0.0666667 0 0 0.0666667 -397.967 -490)" d="M 6245.41,7813.73 L 6251.31,7803.28 L 6446.72,7913.5 L 6446.86,7927.36 L 6245.41,7813.73 Z " />
<path stroke="none" fill="#000000" transform="matrix(0.0666667 0 0 0.0666667 -397.967 -490)" d="M 7190.89,7762.51 L 7191.03,7776.36 L 7045.75,7862.2 L 7039.64,7851.87 L 7190.89,7762.51 Z " />
<path stroke="none" fill="#000000" transform="matrix(0.0666667 0 0 0.0666667 -397.967 -490)" d="M 7446.91,7906.9 L 7434.98,7913.95 L 7191.03,7776.36 L 7190.89,7762.51 L 7446.91,7906.9 Z " />
<text x="0" y="0" stroke="none" fill="#000000" transform="matrix(0.0666667 0 0 0.0666667 93.103 61.7274)" font-style="normal" font-weight="bold" font-size="200px" font-family="Arial" >
OH</text>
<path stroke="none" fill="#000000" transform="matrix(0.0666667 0 0 0.0666667 -397.967 -490)" d="M 7448.8,8094.69 L 7436.8,8094.81 L 7434.98,7913.95 L 7446.91,7906.9 L 7448.8,8094.69 Z " />
<text x="0" y="0" stroke="none" fill="#000000" transform="matrix(0.0666667 0 0 0.0666667 109.383 32.8622)" font-style="normal" font-weight="bold" font-size="200px" font-family="Arial" >
O</text>
<path stroke="none" fill="#000000" transform="matrix(0.0666667 0 0 0.0666667 -397.967 -490)" d="M 7580.56,7790.96 L 7586.67,7801.29 L 7418.01,7900.94 L 7411.91,7890.61 L 7580.56,7790.96 Z " />
<path stroke="none" fill="#000000" transform="matrix(0.0666667 0 0 0.0666667 -397.967 -490)" d="M 7606.84,7835.44 L 7612.95,7845.77 L 7444.29,7945.42 L 7438.19,7935.08 L 7606.84,7835.44 Z " />
</svg>
